%TF.GenerationSoftware,KiCad,Pcbnew,9.0.0*%
%TF.CreationDate,2025-05-08T15:18:36+02:00*%
%TF.ProjectId,VCO 555,56434f20-3535-4352-9e6b-696361645f70,rev?*%
%TF.SameCoordinates,Original*%
%TF.FileFunction,Profile,NP*%
%FSLAX46Y46*%
G04 Gerber Fmt 4.6, Leading zero omitted, Abs format (unit mm)*
G04 Created by KiCad (PCBNEW 9.0.0) date 2025-05-08 15:18:36*
%MOMM*%
%LPD*%
G01*
G04 APERTURE LIST*
%TA.AperFunction,Profile*%
%ADD10C,0.050000*%
%TD*%
G04 APERTURE END LIST*
D10*
X130750000Y-45710000D02*
X130750000Y-42760000D01*
X130750000Y-45710000D02*
X126670000Y-45710000D01*
X126670000Y-45710000D02*
X126670000Y-42760000D01*
X130750000Y-63640000D02*
X126670000Y-63640000D01*
X130750000Y-82470000D02*
X130750000Y-63640000D01*
X126670000Y-63640000D02*
X126670000Y-82470000D01*
X130750000Y-100410000D02*
X130750000Y-119240000D01*
X126670000Y-100410000D02*
X126670000Y-119240000D01*
X126670000Y-119240000D02*
X130750000Y-119240000D01*
X126670000Y-137310000D02*
X126670000Y-140260000D01*
X126670000Y-137310000D02*
X130750000Y-137310000D01*
X130750000Y-137310000D02*
X130750000Y-140260000D01*
X121420000Y-145510000D02*
X61020000Y-145510000D01*
X196520000Y-37510000D02*
X136000000Y-37510000D01*
X126670000Y-100410000D02*
X130750000Y-100410000D01*
X196520000Y-37510000D02*
G75*
G02*
X201770000Y-42760000I0J-5250000D01*
G01*
X130750000Y-42760000D02*
G75*
G02*
X136000000Y-37510000I5250000J0D01*
G01*
X55770000Y-140260000D02*
X55770000Y-42760000D01*
X136000000Y-145510000D02*
G75*
G02*
X130750000Y-140260000I0J5250000D01*
G01*
X130750000Y-82470000D02*
X126670000Y-82470000D01*
X55770000Y-42760000D02*
G75*
G02*
X61020000Y-37510000I5250000J0D01*
G01*
X61020000Y-37510000D02*
X121420000Y-37510000D01*
X201770000Y-140260000D02*
G75*
G02*
X196520000Y-145510000I-5250000J0D01*
G01*
X61020000Y-145510000D02*
G75*
G02*
X55770000Y-140260000I0J5250000D01*
G01*
X201770000Y-140260000D02*
X201770000Y-42760000D01*
X196520000Y-145510000D02*
X136000000Y-145510000D01*
X121420000Y-37510000D02*
G75*
G02*
X126670000Y-42760000I0J-5250000D01*
G01*
X126670000Y-140260000D02*
G75*
G02*
X121420000Y-145510000I-5250000J0D01*
G01*
M02*
