M48
; DRILL file {KiCad 9.0.0} date 2025-05-08T15:18:40+0200
; FORMAT={-:-/ absolute / inch / decimal}
; #@! TF.CreationDate,2025-05-08T15:18:40+02:00
; #@! TF.GenerationSoftware,Kicad,Pcbnew,9.0.0
; #@! TF.FileFunction,NonPlated,1,2,NPTH
FMAT,2
INCH
; #@! TA.AperFunction,NonPlated,NPTH,ComponentDrill
T1C0.0315
%
G90
G05
T1
X4.9854Y-1.8322
X4.9854Y-1.8897
X4.9854Y-1.9471
X4.9854Y-2.0045
X4.9858Y-2.062
X4.9858Y-2.1194
X4.9858Y-2.1768
X4.9858Y-2.2343
X4.9866Y-2.2938
X4.9866Y-2.3512
X4.9866Y-2.4087
X4.9866Y-2.4661
X4.9866Y-3.2813
X4.9866Y-3.3387
X4.9866Y-3.3961
X4.9866Y-3.4535
X4.9866Y-4.7271
X4.9866Y-4.7845
X4.9866Y-4.842
X4.9866Y-4.8994
X4.987Y-3.511
X4.987Y-3.5684
X4.987Y-3.6259
X4.987Y-3.6833
X4.987Y-3.7417
X4.987Y-3.7992
X4.987Y-3.8566
X4.987Y-3.914
X4.987Y-4.9569
X4.987Y-5.0143
X4.987Y-5.0717
X4.987Y-5.1291
X4.987Y-5.1876
X4.987Y-5.245
X4.987Y-5.3024
X4.987Y-5.3598
X5.1465Y-2.062
X5.1465Y-2.1194
X5.1465Y-2.1768
X5.1465Y-2.2343
X5.1469Y-1.8338
X5.1469Y-1.8912
X5.1469Y-1.9487
X5.1469Y-2.0061
X5.1469Y-2.2938
X5.1469Y-2.3512
X5.1469Y-2.4087
X5.1469Y-2.4661
X5.1472Y-3.7417
X5.1472Y-3.7992
X5.1472Y-3.8566
X5.1472Y-3.914
X5.1472Y-5.1876
X5.1472Y-5.245
X5.1472Y-5.3024
X5.1472Y-5.3598
X5.1476Y-3.511
X5.1476Y-3.5684
X5.1476Y-3.6259
X5.1476Y-3.6833
X5.1476Y-4.9569
X5.1476Y-5.0143
X5.1476Y-5.0717
X5.1476Y-5.1291
X5.148Y-3.2829
X5.148Y-3.3403
X5.148Y-3.3977
X5.148Y-3.4551
X5.148Y-4.7287
X5.148Y-4.7861
X5.148Y-4.8435
X5.148Y-4.901
M30
