%TF.GenerationSoftware,KiCad,Pcbnew,9.0.0*%
%TF.CreationDate,2025-05-08T15:18:35+02:00*%
%TF.ProjectId,VCO 555,56434f20-3535-4352-9e6b-696361645f70,rev?*%
%TF.SameCoordinates,Original*%
%TF.FileFunction,Legend,Top*%
%TF.FilePolarity,Positive*%
%FSLAX46Y46*%
G04 Gerber Fmt 4.6, Leading zero omitted, Abs format (unit mm)*
G04 Created by KiCad (PCBNEW 9.0.0) date 2025-05-08 15:18:35*
%MOMM*%
%LPD*%
G01*
G04 APERTURE LIST*
%ADD10C,0.150000*%
%ADD11C,0.120000*%
%ADD12C,0.127000*%
%ADD13C,0.200000*%
G04 APERTURE END LIST*
D10*
X104657142Y-58414819D02*
X104323809Y-57938628D01*
X104085714Y-58414819D02*
X104085714Y-57414819D01*
X104085714Y-57414819D02*
X104466666Y-57414819D01*
X104466666Y-57414819D02*
X104561904Y-57462438D01*
X104561904Y-57462438D02*
X104609523Y-57510057D01*
X104609523Y-57510057D02*
X104657142Y-57605295D01*
X104657142Y-57605295D02*
X104657142Y-57748152D01*
X104657142Y-57748152D02*
X104609523Y-57843390D01*
X104609523Y-57843390D02*
X104561904Y-57891009D01*
X104561904Y-57891009D02*
X104466666Y-57938628D01*
X104466666Y-57938628D02*
X104085714Y-57938628D01*
X104990476Y-57414819D02*
X105609523Y-57414819D01*
X105609523Y-57414819D02*
X105276190Y-57795771D01*
X105276190Y-57795771D02*
X105419047Y-57795771D01*
X105419047Y-57795771D02*
X105514285Y-57843390D01*
X105514285Y-57843390D02*
X105561904Y-57891009D01*
X105561904Y-57891009D02*
X105609523Y-57986247D01*
X105609523Y-57986247D02*
X105609523Y-58224342D01*
X105609523Y-58224342D02*
X105561904Y-58319580D01*
X105561904Y-58319580D02*
X105514285Y-58367200D01*
X105514285Y-58367200D02*
X105419047Y-58414819D01*
X105419047Y-58414819D02*
X105133333Y-58414819D01*
X105133333Y-58414819D02*
X105038095Y-58367200D01*
X105038095Y-58367200D02*
X104990476Y-58319580D01*
X106466666Y-57748152D02*
X106466666Y-58414819D01*
X106228571Y-57367200D02*
X105990476Y-58081485D01*
X105990476Y-58081485D02*
X106609523Y-58081485D01*
X158724819Y-70432857D02*
X158248628Y-70766190D01*
X158724819Y-71004285D02*
X157724819Y-71004285D01*
X157724819Y-71004285D02*
X157724819Y-70623333D01*
X157724819Y-70623333D02*
X157772438Y-70528095D01*
X157772438Y-70528095D02*
X157820057Y-70480476D01*
X157820057Y-70480476D02*
X157915295Y-70432857D01*
X157915295Y-70432857D02*
X158058152Y-70432857D01*
X158058152Y-70432857D02*
X158153390Y-70480476D01*
X158153390Y-70480476D02*
X158201009Y-70528095D01*
X158201009Y-70528095D02*
X158248628Y-70623333D01*
X158248628Y-70623333D02*
X158248628Y-71004285D01*
X157724819Y-69528095D02*
X157724819Y-70004285D01*
X157724819Y-70004285D02*
X158201009Y-70051904D01*
X158201009Y-70051904D02*
X158153390Y-70004285D01*
X158153390Y-70004285D02*
X158105771Y-69909047D01*
X158105771Y-69909047D02*
X158105771Y-69670952D01*
X158105771Y-69670952D02*
X158153390Y-69575714D01*
X158153390Y-69575714D02*
X158201009Y-69528095D01*
X158201009Y-69528095D02*
X158296247Y-69480476D01*
X158296247Y-69480476D02*
X158534342Y-69480476D01*
X158534342Y-69480476D02*
X158629580Y-69528095D01*
X158629580Y-69528095D02*
X158677200Y-69575714D01*
X158677200Y-69575714D02*
X158724819Y-69670952D01*
X158724819Y-69670952D02*
X158724819Y-69909047D01*
X158724819Y-69909047D02*
X158677200Y-70004285D01*
X158677200Y-70004285D02*
X158629580Y-70051904D01*
X158058152Y-68623333D02*
X158724819Y-68623333D01*
X157677200Y-68861428D02*
X158391485Y-69099523D01*
X158391485Y-69099523D02*
X158391485Y-68480476D01*
X188030476Y-51174819D02*
X188030476Y-51889104D01*
X188030476Y-51889104D02*
X187982857Y-52031961D01*
X187982857Y-52031961D02*
X187887619Y-52127200D01*
X187887619Y-52127200D02*
X187744762Y-52174819D01*
X187744762Y-52174819D02*
X187649524Y-52174819D01*
X189030476Y-52174819D02*
X188459048Y-52174819D01*
X188744762Y-52174819D02*
X188744762Y-51174819D01*
X188744762Y-51174819D02*
X188649524Y-51317676D01*
X188649524Y-51317676D02*
X188554286Y-51412914D01*
X188554286Y-51412914D02*
X188459048Y-51460533D01*
X189363810Y-51174819D02*
X190030476Y-51174819D01*
X190030476Y-51174819D02*
X189601905Y-52174819D01*
X104607142Y-61534819D02*
X104273809Y-61058628D01*
X104035714Y-61534819D02*
X104035714Y-60534819D01*
X104035714Y-60534819D02*
X104416666Y-60534819D01*
X104416666Y-60534819D02*
X104511904Y-60582438D01*
X104511904Y-60582438D02*
X104559523Y-60630057D01*
X104559523Y-60630057D02*
X104607142Y-60725295D01*
X104607142Y-60725295D02*
X104607142Y-60868152D01*
X104607142Y-60868152D02*
X104559523Y-60963390D01*
X104559523Y-60963390D02*
X104511904Y-61011009D01*
X104511904Y-61011009D02*
X104416666Y-61058628D01*
X104416666Y-61058628D02*
X104035714Y-61058628D01*
X105464285Y-60534819D02*
X105273809Y-60534819D01*
X105273809Y-60534819D02*
X105178571Y-60582438D01*
X105178571Y-60582438D02*
X105130952Y-60630057D01*
X105130952Y-60630057D02*
X105035714Y-60772914D01*
X105035714Y-60772914D02*
X104988095Y-60963390D01*
X104988095Y-60963390D02*
X104988095Y-61344342D01*
X104988095Y-61344342D02*
X105035714Y-61439580D01*
X105035714Y-61439580D02*
X105083333Y-61487200D01*
X105083333Y-61487200D02*
X105178571Y-61534819D01*
X105178571Y-61534819D02*
X105369047Y-61534819D01*
X105369047Y-61534819D02*
X105464285Y-61487200D01*
X105464285Y-61487200D02*
X105511904Y-61439580D01*
X105511904Y-61439580D02*
X105559523Y-61344342D01*
X105559523Y-61344342D02*
X105559523Y-61106247D01*
X105559523Y-61106247D02*
X105511904Y-61011009D01*
X105511904Y-61011009D02*
X105464285Y-60963390D01*
X105464285Y-60963390D02*
X105369047Y-60915771D01*
X105369047Y-60915771D02*
X105178571Y-60915771D01*
X105178571Y-60915771D02*
X105083333Y-60963390D01*
X105083333Y-60963390D02*
X105035714Y-61011009D01*
X105035714Y-61011009D02*
X104988095Y-61106247D01*
X106178571Y-60534819D02*
X106273809Y-60534819D01*
X106273809Y-60534819D02*
X106369047Y-60582438D01*
X106369047Y-60582438D02*
X106416666Y-60630057D01*
X106416666Y-60630057D02*
X106464285Y-60725295D01*
X106464285Y-60725295D02*
X106511904Y-60915771D01*
X106511904Y-60915771D02*
X106511904Y-61153866D01*
X106511904Y-61153866D02*
X106464285Y-61344342D01*
X106464285Y-61344342D02*
X106416666Y-61439580D01*
X106416666Y-61439580D02*
X106369047Y-61487200D01*
X106369047Y-61487200D02*
X106273809Y-61534819D01*
X106273809Y-61534819D02*
X106178571Y-61534819D01*
X106178571Y-61534819D02*
X106083333Y-61487200D01*
X106083333Y-61487200D02*
X106035714Y-61439580D01*
X106035714Y-61439580D02*
X105988095Y-61344342D01*
X105988095Y-61344342D02*
X105940476Y-61153866D01*
X105940476Y-61153866D02*
X105940476Y-60915771D01*
X105940476Y-60915771D02*
X105988095Y-60725295D01*
X105988095Y-60725295D02*
X106035714Y-60630057D01*
X106035714Y-60630057D02*
X106083333Y-60582438D01*
X106083333Y-60582438D02*
X106178571Y-60534819D01*
X105153333Y-64824819D02*
X104820000Y-64348628D01*
X104581905Y-64824819D02*
X104581905Y-63824819D01*
X104581905Y-63824819D02*
X104962857Y-63824819D01*
X104962857Y-63824819D02*
X105058095Y-63872438D01*
X105058095Y-63872438D02*
X105105714Y-63920057D01*
X105105714Y-63920057D02*
X105153333Y-64015295D01*
X105153333Y-64015295D02*
X105153333Y-64158152D01*
X105153333Y-64158152D02*
X105105714Y-64253390D01*
X105105714Y-64253390D02*
X105058095Y-64301009D01*
X105058095Y-64301009D02*
X104962857Y-64348628D01*
X104962857Y-64348628D02*
X104581905Y-64348628D01*
X106058095Y-63824819D02*
X105581905Y-63824819D01*
X105581905Y-63824819D02*
X105534286Y-64301009D01*
X105534286Y-64301009D02*
X105581905Y-64253390D01*
X105581905Y-64253390D02*
X105677143Y-64205771D01*
X105677143Y-64205771D02*
X105915238Y-64205771D01*
X105915238Y-64205771D02*
X106010476Y-64253390D01*
X106010476Y-64253390D02*
X106058095Y-64301009D01*
X106058095Y-64301009D02*
X106105714Y-64396247D01*
X106105714Y-64396247D02*
X106105714Y-64634342D01*
X106105714Y-64634342D02*
X106058095Y-64729580D01*
X106058095Y-64729580D02*
X106010476Y-64777200D01*
X106010476Y-64777200D02*
X105915238Y-64824819D01*
X105915238Y-64824819D02*
X105677143Y-64824819D01*
X105677143Y-64824819D02*
X105581905Y-64777200D01*
X105581905Y-64777200D02*
X105534286Y-64729580D01*
X188130476Y-90004819D02*
X188130476Y-90719104D01*
X188130476Y-90719104D02*
X188082857Y-90861961D01*
X188082857Y-90861961D02*
X187987619Y-90957200D01*
X187987619Y-90957200D02*
X187844762Y-91004819D01*
X187844762Y-91004819D02*
X187749524Y-91004819D01*
X189130476Y-91004819D02*
X188559048Y-91004819D01*
X188844762Y-91004819D02*
X188844762Y-90004819D01*
X188844762Y-90004819D02*
X188749524Y-90147676D01*
X188749524Y-90147676D02*
X188654286Y-90242914D01*
X188654286Y-90242914D02*
X188559048Y-90290533D01*
X189749524Y-90004819D02*
X189844762Y-90004819D01*
X189844762Y-90004819D02*
X189940000Y-90052438D01*
X189940000Y-90052438D02*
X189987619Y-90100057D01*
X189987619Y-90100057D02*
X190035238Y-90195295D01*
X190035238Y-90195295D02*
X190082857Y-90385771D01*
X190082857Y-90385771D02*
X190082857Y-90623866D01*
X190082857Y-90623866D02*
X190035238Y-90814342D01*
X190035238Y-90814342D02*
X189987619Y-90909580D01*
X189987619Y-90909580D02*
X189940000Y-90957200D01*
X189940000Y-90957200D02*
X189844762Y-91004819D01*
X189844762Y-91004819D02*
X189749524Y-91004819D01*
X189749524Y-91004819D02*
X189654286Y-90957200D01*
X189654286Y-90957200D02*
X189606667Y-90909580D01*
X189606667Y-90909580D02*
X189559048Y-90814342D01*
X189559048Y-90814342D02*
X189511429Y-90623866D01*
X189511429Y-90623866D02*
X189511429Y-90385771D01*
X189511429Y-90385771D02*
X189559048Y-90195295D01*
X189559048Y-90195295D02*
X189606667Y-90100057D01*
X189606667Y-90100057D02*
X189654286Y-90052438D01*
X189654286Y-90052438D02*
X189749524Y-90004819D01*
X165308571Y-131584819D02*
X164975238Y-131108628D01*
X164737143Y-131584819D02*
X164737143Y-130584819D01*
X164737143Y-130584819D02*
X165118095Y-130584819D01*
X165118095Y-130584819D02*
X165213333Y-130632438D01*
X165213333Y-130632438D02*
X165260952Y-130680057D01*
X165260952Y-130680057D02*
X165308571Y-130775295D01*
X165308571Y-130775295D02*
X165308571Y-130918152D01*
X165308571Y-130918152D02*
X165260952Y-131013390D01*
X165260952Y-131013390D02*
X165213333Y-131061009D01*
X165213333Y-131061009D02*
X165118095Y-131108628D01*
X165118095Y-131108628D02*
X164737143Y-131108628D01*
X165594286Y-130584819D02*
X165927619Y-131584819D01*
X165927619Y-131584819D02*
X166260952Y-130584819D01*
X167022857Y-130918152D02*
X167022857Y-131584819D01*
X166784762Y-130537200D02*
X166546667Y-131251485D01*
X166546667Y-131251485D02*
X167165714Y-131251485D01*
X167451429Y-130584819D02*
X168070476Y-130584819D01*
X168070476Y-130584819D02*
X167737143Y-130965771D01*
X167737143Y-130965771D02*
X167880000Y-130965771D01*
X167880000Y-130965771D02*
X167975238Y-131013390D01*
X167975238Y-131013390D02*
X168022857Y-131061009D01*
X168022857Y-131061009D02*
X168070476Y-131156247D01*
X168070476Y-131156247D02*
X168070476Y-131394342D01*
X168070476Y-131394342D02*
X168022857Y-131489580D01*
X168022857Y-131489580D02*
X167975238Y-131537200D01*
X167975238Y-131537200D02*
X167880000Y-131584819D01*
X167880000Y-131584819D02*
X167594286Y-131584819D01*
X167594286Y-131584819D02*
X167499048Y-131537200D01*
X167499048Y-131537200D02*
X167451429Y-131489580D01*
X143146666Y-51274819D02*
X143146666Y-51989104D01*
X143146666Y-51989104D02*
X143099047Y-52131961D01*
X143099047Y-52131961D02*
X143003809Y-52227200D01*
X143003809Y-52227200D02*
X142860952Y-52274819D01*
X142860952Y-52274819D02*
X142765714Y-52274819D01*
X144051428Y-51274819D02*
X143860952Y-51274819D01*
X143860952Y-51274819D02*
X143765714Y-51322438D01*
X143765714Y-51322438D02*
X143718095Y-51370057D01*
X143718095Y-51370057D02*
X143622857Y-51512914D01*
X143622857Y-51512914D02*
X143575238Y-51703390D01*
X143575238Y-51703390D02*
X143575238Y-52084342D01*
X143575238Y-52084342D02*
X143622857Y-52179580D01*
X143622857Y-52179580D02*
X143670476Y-52227200D01*
X143670476Y-52227200D02*
X143765714Y-52274819D01*
X143765714Y-52274819D02*
X143956190Y-52274819D01*
X143956190Y-52274819D02*
X144051428Y-52227200D01*
X144051428Y-52227200D02*
X144099047Y-52179580D01*
X144099047Y-52179580D02*
X144146666Y-52084342D01*
X144146666Y-52084342D02*
X144146666Y-51846247D01*
X144146666Y-51846247D02*
X144099047Y-51751009D01*
X144099047Y-51751009D02*
X144051428Y-51703390D01*
X144051428Y-51703390D02*
X143956190Y-51655771D01*
X143956190Y-51655771D02*
X143765714Y-51655771D01*
X143765714Y-51655771D02*
X143670476Y-51703390D01*
X143670476Y-51703390D02*
X143622857Y-51751009D01*
X143622857Y-51751009D02*
X143575238Y-51846247D01*
X188536666Y-108854819D02*
X188536666Y-109569104D01*
X188536666Y-109569104D02*
X188489047Y-109711961D01*
X188489047Y-109711961D02*
X188393809Y-109807200D01*
X188393809Y-109807200D02*
X188250952Y-109854819D01*
X188250952Y-109854819D02*
X188155714Y-109854819D01*
X189060476Y-109854819D02*
X189250952Y-109854819D01*
X189250952Y-109854819D02*
X189346190Y-109807200D01*
X189346190Y-109807200D02*
X189393809Y-109759580D01*
X189393809Y-109759580D02*
X189489047Y-109616723D01*
X189489047Y-109616723D02*
X189536666Y-109426247D01*
X189536666Y-109426247D02*
X189536666Y-109045295D01*
X189536666Y-109045295D02*
X189489047Y-108950057D01*
X189489047Y-108950057D02*
X189441428Y-108902438D01*
X189441428Y-108902438D02*
X189346190Y-108854819D01*
X189346190Y-108854819D02*
X189155714Y-108854819D01*
X189155714Y-108854819D02*
X189060476Y-108902438D01*
X189060476Y-108902438D02*
X189012857Y-108950057D01*
X189012857Y-108950057D02*
X188965238Y-109045295D01*
X188965238Y-109045295D02*
X188965238Y-109283390D01*
X188965238Y-109283390D02*
X189012857Y-109378628D01*
X189012857Y-109378628D02*
X189060476Y-109426247D01*
X189060476Y-109426247D02*
X189155714Y-109473866D01*
X189155714Y-109473866D02*
X189346190Y-109473866D01*
X189346190Y-109473866D02*
X189441428Y-109426247D01*
X189441428Y-109426247D02*
X189489047Y-109378628D01*
X189489047Y-109378628D02*
X189536666Y-109283390D01*
X134030476Y-115684819D02*
X134030476Y-116399104D01*
X134030476Y-116399104D02*
X133982857Y-116541961D01*
X133982857Y-116541961D02*
X133887619Y-116637200D01*
X133887619Y-116637200D02*
X133744762Y-116684819D01*
X133744762Y-116684819D02*
X133649524Y-116684819D01*
X135030476Y-116684819D02*
X134459048Y-116684819D01*
X134744762Y-116684819D02*
X134744762Y-115684819D01*
X134744762Y-115684819D02*
X134649524Y-115827676D01*
X134649524Y-115827676D02*
X134554286Y-115922914D01*
X134554286Y-115922914D02*
X134459048Y-115970533D01*
X135935238Y-115684819D02*
X135459048Y-115684819D01*
X135459048Y-115684819D02*
X135411429Y-116161009D01*
X135411429Y-116161009D02*
X135459048Y-116113390D01*
X135459048Y-116113390D02*
X135554286Y-116065771D01*
X135554286Y-116065771D02*
X135792381Y-116065771D01*
X135792381Y-116065771D02*
X135887619Y-116113390D01*
X135887619Y-116113390D02*
X135935238Y-116161009D01*
X135935238Y-116161009D02*
X135982857Y-116256247D01*
X135982857Y-116256247D02*
X135982857Y-116494342D01*
X135982857Y-116494342D02*
X135935238Y-116589580D01*
X135935238Y-116589580D02*
X135887619Y-116637200D01*
X135887619Y-116637200D02*
X135792381Y-116684819D01*
X135792381Y-116684819D02*
X135554286Y-116684819D01*
X135554286Y-116684819D02*
X135459048Y-116637200D01*
X135459048Y-116637200D02*
X135411429Y-116589580D01*
X165498571Y-112554819D02*
X165165238Y-112078628D01*
X164927143Y-112554819D02*
X164927143Y-111554819D01*
X164927143Y-111554819D02*
X165308095Y-111554819D01*
X165308095Y-111554819D02*
X165403333Y-111602438D01*
X165403333Y-111602438D02*
X165450952Y-111650057D01*
X165450952Y-111650057D02*
X165498571Y-111745295D01*
X165498571Y-111745295D02*
X165498571Y-111888152D01*
X165498571Y-111888152D02*
X165450952Y-111983390D01*
X165450952Y-111983390D02*
X165403333Y-112031009D01*
X165403333Y-112031009D02*
X165308095Y-112078628D01*
X165308095Y-112078628D02*
X164927143Y-112078628D01*
X165784286Y-111554819D02*
X166117619Y-112554819D01*
X166117619Y-112554819D02*
X166450952Y-111554819D01*
X167212857Y-111888152D02*
X167212857Y-112554819D01*
X166974762Y-111507200D02*
X166736667Y-112221485D01*
X166736667Y-112221485D02*
X167355714Y-112221485D01*
X167689048Y-111650057D02*
X167736667Y-111602438D01*
X167736667Y-111602438D02*
X167831905Y-111554819D01*
X167831905Y-111554819D02*
X168070000Y-111554819D01*
X168070000Y-111554819D02*
X168165238Y-111602438D01*
X168165238Y-111602438D02*
X168212857Y-111650057D01*
X168212857Y-111650057D02*
X168260476Y-111745295D01*
X168260476Y-111745295D02*
X168260476Y-111840533D01*
X168260476Y-111840533D02*
X168212857Y-111983390D01*
X168212857Y-111983390D02*
X167641429Y-112554819D01*
X167641429Y-112554819D02*
X168260476Y-112554819D01*
X162127142Y-62794819D02*
X161793809Y-62318628D01*
X161555714Y-62794819D02*
X161555714Y-61794819D01*
X161555714Y-61794819D02*
X161936666Y-61794819D01*
X161936666Y-61794819D02*
X162031904Y-61842438D01*
X162031904Y-61842438D02*
X162079523Y-61890057D01*
X162079523Y-61890057D02*
X162127142Y-61985295D01*
X162127142Y-61985295D02*
X162127142Y-62128152D01*
X162127142Y-62128152D02*
X162079523Y-62223390D01*
X162079523Y-62223390D02*
X162031904Y-62271009D01*
X162031904Y-62271009D02*
X161936666Y-62318628D01*
X161936666Y-62318628D02*
X161555714Y-62318628D01*
X162508095Y-61890057D02*
X162555714Y-61842438D01*
X162555714Y-61842438D02*
X162650952Y-61794819D01*
X162650952Y-61794819D02*
X162889047Y-61794819D01*
X162889047Y-61794819D02*
X162984285Y-61842438D01*
X162984285Y-61842438D02*
X163031904Y-61890057D01*
X163031904Y-61890057D02*
X163079523Y-61985295D01*
X163079523Y-61985295D02*
X163079523Y-62080533D01*
X163079523Y-62080533D02*
X163031904Y-62223390D01*
X163031904Y-62223390D02*
X162460476Y-62794819D01*
X162460476Y-62794819D02*
X163079523Y-62794819D01*
X163555714Y-62794819D02*
X163746190Y-62794819D01*
X163746190Y-62794819D02*
X163841428Y-62747200D01*
X163841428Y-62747200D02*
X163889047Y-62699580D01*
X163889047Y-62699580D02*
X163984285Y-62556723D01*
X163984285Y-62556723D02*
X164031904Y-62366247D01*
X164031904Y-62366247D02*
X164031904Y-61985295D01*
X164031904Y-61985295D02*
X163984285Y-61890057D01*
X163984285Y-61890057D02*
X163936666Y-61842438D01*
X163936666Y-61842438D02*
X163841428Y-61794819D01*
X163841428Y-61794819D02*
X163650952Y-61794819D01*
X163650952Y-61794819D02*
X163555714Y-61842438D01*
X163555714Y-61842438D02*
X163508095Y-61890057D01*
X163508095Y-61890057D02*
X163460476Y-61985295D01*
X163460476Y-61985295D02*
X163460476Y-62223390D01*
X163460476Y-62223390D02*
X163508095Y-62318628D01*
X163508095Y-62318628D02*
X163555714Y-62366247D01*
X163555714Y-62366247D02*
X163650952Y-62413866D01*
X163650952Y-62413866D02*
X163841428Y-62413866D01*
X163841428Y-62413866D02*
X163936666Y-62366247D01*
X163936666Y-62366247D02*
X163984285Y-62318628D01*
X163984285Y-62318628D02*
X164031904Y-62223390D01*
X104647142Y-48454819D02*
X104313809Y-47978628D01*
X104075714Y-48454819D02*
X104075714Y-47454819D01*
X104075714Y-47454819D02*
X104456666Y-47454819D01*
X104456666Y-47454819D02*
X104551904Y-47502438D01*
X104551904Y-47502438D02*
X104599523Y-47550057D01*
X104599523Y-47550057D02*
X104647142Y-47645295D01*
X104647142Y-47645295D02*
X104647142Y-47788152D01*
X104647142Y-47788152D02*
X104599523Y-47883390D01*
X104599523Y-47883390D02*
X104551904Y-47931009D01*
X104551904Y-47931009D02*
X104456666Y-47978628D01*
X104456666Y-47978628D02*
X104075714Y-47978628D01*
X105551904Y-47454819D02*
X105075714Y-47454819D01*
X105075714Y-47454819D02*
X105028095Y-47931009D01*
X105028095Y-47931009D02*
X105075714Y-47883390D01*
X105075714Y-47883390D02*
X105170952Y-47835771D01*
X105170952Y-47835771D02*
X105409047Y-47835771D01*
X105409047Y-47835771D02*
X105504285Y-47883390D01*
X105504285Y-47883390D02*
X105551904Y-47931009D01*
X105551904Y-47931009D02*
X105599523Y-48026247D01*
X105599523Y-48026247D02*
X105599523Y-48264342D01*
X105599523Y-48264342D02*
X105551904Y-48359580D01*
X105551904Y-48359580D02*
X105504285Y-48407200D01*
X105504285Y-48407200D02*
X105409047Y-48454819D01*
X105409047Y-48454819D02*
X105170952Y-48454819D01*
X105170952Y-48454819D02*
X105075714Y-48407200D01*
X105075714Y-48407200D02*
X105028095Y-48359580D01*
X106218571Y-47454819D02*
X106313809Y-47454819D01*
X106313809Y-47454819D02*
X106409047Y-47502438D01*
X106409047Y-47502438D02*
X106456666Y-47550057D01*
X106456666Y-47550057D02*
X106504285Y-47645295D01*
X106504285Y-47645295D02*
X106551904Y-47835771D01*
X106551904Y-47835771D02*
X106551904Y-48073866D01*
X106551904Y-48073866D02*
X106504285Y-48264342D01*
X106504285Y-48264342D02*
X106456666Y-48359580D01*
X106456666Y-48359580D02*
X106409047Y-48407200D01*
X106409047Y-48407200D02*
X106313809Y-48454819D01*
X106313809Y-48454819D02*
X106218571Y-48454819D01*
X106218571Y-48454819D02*
X106123333Y-48407200D01*
X106123333Y-48407200D02*
X106075714Y-48359580D01*
X106075714Y-48359580D02*
X106028095Y-48264342D01*
X106028095Y-48264342D02*
X105980476Y-48073866D01*
X105980476Y-48073866D02*
X105980476Y-47835771D01*
X105980476Y-47835771D02*
X106028095Y-47645295D01*
X106028095Y-47645295D02*
X106075714Y-47550057D01*
X106075714Y-47550057D02*
X106123333Y-47502438D01*
X106123333Y-47502438D02*
X106218571Y-47454819D01*
X165518571Y-71534819D02*
X165185238Y-71058628D01*
X164947143Y-71534819D02*
X164947143Y-70534819D01*
X164947143Y-70534819D02*
X165328095Y-70534819D01*
X165328095Y-70534819D02*
X165423333Y-70582438D01*
X165423333Y-70582438D02*
X165470952Y-70630057D01*
X165470952Y-70630057D02*
X165518571Y-70725295D01*
X165518571Y-70725295D02*
X165518571Y-70868152D01*
X165518571Y-70868152D02*
X165470952Y-70963390D01*
X165470952Y-70963390D02*
X165423333Y-71011009D01*
X165423333Y-71011009D02*
X165328095Y-71058628D01*
X165328095Y-71058628D02*
X164947143Y-71058628D01*
X165804286Y-70534819D02*
X166137619Y-71534819D01*
X166137619Y-71534819D02*
X166470952Y-70534819D01*
X167232857Y-70868152D02*
X167232857Y-71534819D01*
X166994762Y-70487200D02*
X166756667Y-71201485D01*
X166756667Y-71201485D02*
X167375714Y-71201485D01*
X168280476Y-71534819D02*
X167709048Y-71534819D01*
X167994762Y-71534819D02*
X167994762Y-70534819D01*
X167994762Y-70534819D02*
X167899524Y-70677676D01*
X167899524Y-70677676D02*
X167804286Y-70772914D01*
X167804286Y-70772914D02*
X167709048Y-70820533D01*
X81374819Y-40553333D02*
X82089104Y-40553333D01*
X82089104Y-40553333D02*
X82231961Y-40600952D01*
X82231961Y-40600952D02*
X82327200Y-40696190D01*
X82327200Y-40696190D02*
X82374819Y-40839047D01*
X82374819Y-40839047D02*
X82374819Y-40934285D01*
X82374819Y-39553333D02*
X82374819Y-40124761D01*
X82374819Y-39839047D02*
X81374819Y-39839047D01*
X81374819Y-39839047D02*
X81517676Y-39934285D01*
X81517676Y-39934285D02*
X81612914Y-40029523D01*
X81612914Y-40029523D02*
X81660533Y-40124761D01*
X143076666Y-91464819D02*
X143076666Y-92179104D01*
X143076666Y-92179104D02*
X143029047Y-92321961D01*
X143029047Y-92321961D02*
X142933809Y-92417200D01*
X142933809Y-92417200D02*
X142790952Y-92464819D01*
X142790952Y-92464819D02*
X142695714Y-92464819D01*
X144029047Y-91464819D02*
X143552857Y-91464819D01*
X143552857Y-91464819D02*
X143505238Y-91941009D01*
X143505238Y-91941009D02*
X143552857Y-91893390D01*
X143552857Y-91893390D02*
X143648095Y-91845771D01*
X143648095Y-91845771D02*
X143886190Y-91845771D01*
X143886190Y-91845771D02*
X143981428Y-91893390D01*
X143981428Y-91893390D02*
X144029047Y-91941009D01*
X144029047Y-91941009D02*
X144076666Y-92036247D01*
X144076666Y-92036247D02*
X144076666Y-92274342D01*
X144076666Y-92274342D02*
X144029047Y-92369580D01*
X144029047Y-92369580D02*
X143981428Y-92417200D01*
X143981428Y-92417200D02*
X143886190Y-92464819D01*
X143886190Y-92464819D02*
X143648095Y-92464819D01*
X143648095Y-92464819D02*
X143552857Y-92417200D01*
X143552857Y-92417200D02*
X143505238Y-92369580D01*
X105123333Y-51924819D02*
X104790000Y-51448628D01*
X104551905Y-51924819D02*
X104551905Y-50924819D01*
X104551905Y-50924819D02*
X104932857Y-50924819D01*
X104932857Y-50924819D02*
X105028095Y-50972438D01*
X105028095Y-50972438D02*
X105075714Y-51020057D01*
X105075714Y-51020057D02*
X105123333Y-51115295D01*
X105123333Y-51115295D02*
X105123333Y-51258152D01*
X105123333Y-51258152D02*
X105075714Y-51353390D01*
X105075714Y-51353390D02*
X105028095Y-51401009D01*
X105028095Y-51401009D02*
X104932857Y-51448628D01*
X104932857Y-51448628D02*
X104551905Y-51448628D01*
X105456667Y-50924819D02*
X106075714Y-50924819D01*
X106075714Y-50924819D02*
X105742381Y-51305771D01*
X105742381Y-51305771D02*
X105885238Y-51305771D01*
X105885238Y-51305771D02*
X105980476Y-51353390D01*
X105980476Y-51353390D02*
X106028095Y-51401009D01*
X106028095Y-51401009D02*
X106075714Y-51496247D01*
X106075714Y-51496247D02*
X106075714Y-51734342D01*
X106075714Y-51734342D02*
X106028095Y-51829580D01*
X106028095Y-51829580D02*
X105980476Y-51877200D01*
X105980476Y-51877200D02*
X105885238Y-51924819D01*
X105885238Y-51924819D02*
X105599524Y-51924819D01*
X105599524Y-51924819D02*
X105504286Y-51877200D01*
X105504286Y-51877200D02*
X105456667Y-51829580D01*
X142600476Y-131154819D02*
X142600476Y-131869104D01*
X142600476Y-131869104D02*
X142552857Y-132011961D01*
X142552857Y-132011961D02*
X142457619Y-132107200D01*
X142457619Y-132107200D02*
X142314762Y-132154819D01*
X142314762Y-132154819D02*
X142219524Y-132154819D01*
X143600476Y-132154819D02*
X143029048Y-132154819D01*
X143314762Y-132154819D02*
X143314762Y-131154819D01*
X143314762Y-131154819D02*
X143219524Y-131297676D01*
X143219524Y-131297676D02*
X143124286Y-131392914D01*
X143124286Y-131392914D02*
X143029048Y-131440533D01*
X144552857Y-132154819D02*
X143981429Y-132154819D01*
X144267143Y-132154819D02*
X144267143Y-131154819D01*
X144267143Y-131154819D02*
X144171905Y-131297676D01*
X144171905Y-131297676D02*
X144076667Y-131392914D01*
X144076667Y-131392914D02*
X143981429Y-131440533D01*
X143076666Y-111064819D02*
X143076666Y-111779104D01*
X143076666Y-111779104D02*
X143029047Y-111921961D01*
X143029047Y-111921961D02*
X142933809Y-112017200D01*
X142933809Y-112017200D02*
X142790952Y-112064819D01*
X142790952Y-112064819D02*
X142695714Y-112064819D01*
X143457619Y-111064819D02*
X144124285Y-111064819D01*
X144124285Y-111064819D02*
X143695714Y-112064819D01*
X156834819Y-40553333D02*
X157549104Y-40553333D01*
X157549104Y-40553333D02*
X157691961Y-40600952D01*
X157691961Y-40600952D02*
X157787200Y-40696190D01*
X157787200Y-40696190D02*
X157834819Y-40839047D01*
X157834819Y-40839047D02*
X157834819Y-40934285D01*
X157834819Y-39553333D02*
X157834819Y-40124761D01*
X157834819Y-39839047D02*
X156834819Y-39839047D01*
X156834819Y-39839047D02*
X156977676Y-39934285D01*
X156977676Y-39934285D02*
X157072914Y-40029523D01*
X157072914Y-40029523D02*
X157120533Y-40124761D01*
X151537142Y-62894819D02*
X151203809Y-62418628D01*
X150965714Y-62894819D02*
X150965714Y-61894819D01*
X150965714Y-61894819D02*
X151346666Y-61894819D01*
X151346666Y-61894819D02*
X151441904Y-61942438D01*
X151441904Y-61942438D02*
X151489523Y-61990057D01*
X151489523Y-61990057D02*
X151537142Y-62085295D01*
X151537142Y-62085295D02*
X151537142Y-62228152D01*
X151537142Y-62228152D02*
X151489523Y-62323390D01*
X151489523Y-62323390D02*
X151441904Y-62371009D01*
X151441904Y-62371009D02*
X151346666Y-62418628D01*
X151346666Y-62418628D02*
X150965714Y-62418628D01*
X151870476Y-61894819D02*
X152489523Y-61894819D01*
X152489523Y-61894819D02*
X152156190Y-62275771D01*
X152156190Y-62275771D02*
X152299047Y-62275771D01*
X152299047Y-62275771D02*
X152394285Y-62323390D01*
X152394285Y-62323390D02*
X152441904Y-62371009D01*
X152441904Y-62371009D02*
X152489523Y-62466247D01*
X152489523Y-62466247D02*
X152489523Y-62704342D01*
X152489523Y-62704342D02*
X152441904Y-62799580D01*
X152441904Y-62799580D02*
X152394285Y-62847200D01*
X152394285Y-62847200D02*
X152299047Y-62894819D01*
X152299047Y-62894819D02*
X152013333Y-62894819D01*
X152013333Y-62894819D02*
X151918095Y-62847200D01*
X151918095Y-62847200D02*
X151870476Y-62799580D01*
X153108571Y-61894819D02*
X153203809Y-61894819D01*
X153203809Y-61894819D02*
X153299047Y-61942438D01*
X153299047Y-61942438D02*
X153346666Y-61990057D01*
X153346666Y-61990057D02*
X153394285Y-62085295D01*
X153394285Y-62085295D02*
X153441904Y-62275771D01*
X153441904Y-62275771D02*
X153441904Y-62513866D01*
X153441904Y-62513866D02*
X153394285Y-62704342D01*
X153394285Y-62704342D02*
X153346666Y-62799580D01*
X153346666Y-62799580D02*
X153299047Y-62847200D01*
X153299047Y-62847200D02*
X153203809Y-62894819D01*
X153203809Y-62894819D02*
X153108571Y-62894819D01*
X153108571Y-62894819D02*
X153013333Y-62847200D01*
X153013333Y-62847200D02*
X152965714Y-62799580D01*
X152965714Y-62799580D02*
X152918095Y-62704342D01*
X152918095Y-62704342D02*
X152870476Y-62513866D01*
X152870476Y-62513866D02*
X152870476Y-62275771D01*
X152870476Y-62275771D02*
X152918095Y-62085295D01*
X152918095Y-62085295D02*
X152965714Y-61990057D01*
X152965714Y-61990057D02*
X153013333Y-61942438D01*
X153013333Y-61942438D02*
X153108571Y-61894819D01*
X169987142Y-102604819D02*
X169653809Y-102128628D01*
X169415714Y-102604819D02*
X169415714Y-101604819D01*
X169415714Y-101604819D02*
X169796666Y-101604819D01*
X169796666Y-101604819D02*
X169891904Y-101652438D01*
X169891904Y-101652438D02*
X169939523Y-101700057D01*
X169939523Y-101700057D02*
X169987142Y-101795295D01*
X169987142Y-101795295D02*
X169987142Y-101938152D01*
X169987142Y-101938152D02*
X169939523Y-102033390D01*
X169939523Y-102033390D02*
X169891904Y-102081009D01*
X169891904Y-102081009D02*
X169796666Y-102128628D01*
X169796666Y-102128628D02*
X169415714Y-102128628D01*
X170368095Y-101700057D02*
X170415714Y-101652438D01*
X170415714Y-101652438D02*
X170510952Y-101604819D01*
X170510952Y-101604819D02*
X170749047Y-101604819D01*
X170749047Y-101604819D02*
X170844285Y-101652438D01*
X170844285Y-101652438D02*
X170891904Y-101700057D01*
X170891904Y-101700057D02*
X170939523Y-101795295D01*
X170939523Y-101795295D02*
X170939523Y-101890533D01*
X170939523Y-101890533D02*
X170891904Y-102033390D01*
X170891904Y-102033390D02*
X170320476Y-102604819D01*
X170320476Y-102604819D02*
X170939523Y-102604819D01*
X171510952Y-102033390D02*
X171415714Y-101985771D01*
X171415714Y-101985771D02*
X171368095Y-101938152D01*
X171368095Y-101938152D02*
X171320476Y-101842914D01*
X171320476Y-101842914D02*
X171320476Y-101795295D01*
X171320476Y-101795295D02*
X171368095Y-101700057D01*
X171368095Y-101700057D02*
X171415714Y-101652438D01*
X171415714Y-101652438D02*
X171510952Y-101604819D01*
X171510952Y-101604819D02*
X171701428Y-101604819D01*
X171701428Y-101604819D02*
X171796666Y-101652438D01*
X171796666Y-101652438D02*
X171844285Y-101700057D01*
X171844285Y-101700057D02*
X171891904Y-101795295D01*
X171891904Y-101795295D02*
X171891904Y-101842914D01*
X171891904Y-101842914D02*
X171844285Y-101938152D01*
X171844285Y-101938152D02*
X171796666Y-101985771D01*
X171796666Y-101985771D02*
X171701428Y-102033390D01*
X171701428Y-102033390D02*
X171510952Y-102033390D01*
X171510952Y-102033390D02*
X171415714Y-102081009D01*
X171415714Y-102081009D02*
X171368095Y-102128628D01*
X171368095Y-102128628D02*
X171320476Y-102223866D01*
X171320476Y-102223866D02*
X171320476Y-102414342D01*
X171320476Y-102414342D02*
X171368095Y-102509580D01*
X171368095Y-102509580D02*
X171415714Y-102557200D01*
X171415714Y-102557200D02*
X171510952Y-102604819D01*
X171510952Y-102604819D02*
X171701428Y-102604819D01*
X171701428Y-102604819D02*
X171796666Y-102557200D01*
X171796666Y-102557200D02*
X171844285Y-102509580D01*
X171844285Y-102509580D02*
X171891904Y-102414342D01*
X171891904Y-102414342D02*
X171891904Y-102223866D01*
X171891904Y-102223866D02*
X171844285Y-102128628D01*
X171844285Y-102128628D02*
X171796666Y-102081009D01*
X171796666Y-102081009D02*
X171701428Y-102033390D01*
X143156666Y-71294819D02*
X143156666Y-72009104D01*
X143156666Y-72009104D02*
X143109047Y-72151961D01*
X143109047Y-72151961D02*
X143013809Y-72247200D01*
X143013809Y-72247200D02*
X142870952Y-72294819D01*
X142870952Y-72294819D02*
X142775714Y-72294819D01*
X144061428Y-71628152D02*
X144061428Y-72294819D01*
X143823333Y-71247200D02*
X143585238Y-71961485D01*
X143585238Y-71961485D02*
X144204285Y-71961485D01*
X165468571Y-92354819D02*
X165135238Y-91878628D01*
X164897143Y-92354819D02*
X164897143Y-91354819D01*
X164897143Y-91354819D02*
X165278095Y-91354819D01*
X165278095Y-91354819D02*
X165373333Y-91402438D01*
X165373333Y-91402438D02*
X165420952Y-91450057D01*
X165420952Y-91450057D02*
X165468571Y-91545295D01*
X165468571Y-91545295D02*
X165468571Y-91688152D01*
X165468571Y-91688152D02*
X165420952Y-91783390D01*
X165420952Y-91783390D02*
X165373333Y-91831009D01*
X165373333Y-91831009D02*
X165278095Y-91878628D01*
X165278095Y-91878628D02*
X164897143Y-91878628D01*
X165754286Y-91354819D02*
X166087619Y-92354819D01*
X166087619Y-92354819D02*
X166420952Y-91354819D01*
X166659048Y-91354819D02*
X167278095Y-91354819D01*
X167278095Y-91354819D02*
X166944762Y-91735771D01*
X166944762Y-91735771D02*
X167087619Y-91735771D01*
X167087619Y-91735771D02*
X167182857Y-91783390D01*
X167182857Y-91783390D02*
X167230476Y-91831009D01*
X167230476Y-91831009D02*
X167278095Y-91926247D01*
X167278095Y-91926247D02*
X167278095Y-92164342D01*
X167278095Y-92164342D02*
X167230476Y-92259580D01*
X167230476Y-92259580D02*
X167182857Y-92307200D01*
X167182857Y-92307200D02*
X167087619Y-92354819D01*
X167087619Y-92354819D02*
X166801905Y-92354819D01*
X166801905Y-92354819D02*
X166706667Y-92307200D01*
X166706667Y-92307200D02*
X166659048Y-92259580D01*
X167754286Y-92354819D02*
X167944762Y-92354819D01*
X167944762Y-92354819D02*
X168040000Y-92307200D01*
X168040000Y-92307200D02*
X168087619Y-92259580D01*
X168087619Y-92259580D02*
X168182857Y-92116723D01*
X168182857Y-92116723D02*
X168230476Y-91926247D01*
X168230476Y-91926247D02*
X168230476Y-91545295D01*
X168230476Y-91545295D02*
X168182857Y-91450057D01*
X168182857Y-91450057D02*
X168135238Y-91402438D01*
X168135238Y-91402438D02*
X168040000Y-91354819D01*
X168040000Y-91354819D02*
X167849524Y-91354819D01*
X167849524Y-91354819D02*
X167754286Y-91402438D01*
X167754286Y-91402438D02*
X167706667Y-91450057D01*
X167706667Y-91450057D02*
X167659048Y-91545295D01*
X167659048Y-91545295D02*
X167659048Y-91783390D01*
X167659048Y-91783390D02*
X167706667Y-91878628D01*
X167706667Y-91878628D02*
X167754286Y-91926247D01*
X167754286Y-91926247D02*
X167849524Y-91973866D01*
X167849524Y-91973866D02*
X168040000Y-91973866D01*
X168040000Y-91973866D02*
X168135238Y-91926247D01*
X168135238Y-91926247D02*
X168182857Y-91878628D01*
X168182857Y-91878628D02*
X168230476Y-91783390D01*
X188416666Y-71454819D02*
X188416666Y-72169104D01*
X188416666Y-72169104D02*
X188369047Y-72311961D01*
X188369047Y-72311961D02*
X188273809Y-72407200D01*
X188273809Y-72407200D02*
X188130952Y-72454819D01*
X188130952Y-72454819D02*
X188035714Y-72454819D01*
X189035714Y-71883390D02*
X188940476Y-71835771D01*
X188940476Y-71835771D02*
X188892857Y-71788152D01*
X188892857Y-71788152D02*
X188845238Y-71692914D01*
X188845238Y-71692914D02*
X188845238Y-71645295D01*
X188845238Y-71645295D02*
X188892857Y-71550057D01*
X188892857Y-71550057D02*
X188940476Y-71502438D01*
X188940476Y-71502438D02*
X189035714Y-71454819D01*
X189035714Y-71454819D02*
X189226190Y-71454819D01*
X189226190Y-71454819D02*
X189321428Y-71502438D01*
X189321428Y-71502438D02*
X189369047Y-71550057D01*
X189369047Y-71550057D02*
X189416666Y-71645295D01*
X189416666Y-71645295D02*
X189416666Y-71692914D01*
X189416666Y-71692914D02*
X189369047Y-71788152D01*
X189369047Y-71788152D02*
X189321428Y-71835771D01*
X189321428Y-71835771D02*
X189226190Y-71883390D01*
X189226190Y-71883390D02*
X189035714Y-71883390D01*
X189035714Y-71883390D02*
X188940476Y-71931009D01*
X188940476Y-71931009D02*
X188892857Y-71978628D01*
X188892857Y-71978628D02*
X188845238Y-72073866D01*
X188845238Y-72073866D02*
X188845238Y-72264342D01*
X188845238Y-72264342D02*
X188892857Y-72359580D01*
X188892857Y-72359580D02*
X188940476Y-72407200D01*
X188940476Y-72407200D02*
X189035714Y-72454819D01*
X189035714Y-72454819D02*
X189226190Y-72454819D01*
X189226190Y-72454819D02*
X189321428Y-72407200D01*
X189321428Y-72407200D02*
X189369047Y-72359580D01*
X189369047Y-72359580D02*
X189416666Y-72264342D01*
X189416666Y-72264342D02*
X189416666Y-72073866D01*
X189416666Y-72073866D02*
X189369047Y-71978628D01*
X189369047Y-71978628D02*
X189321428Y-71931009D01*
X189321428Y-71931009D02*
X189226190Y-71883390D01*
X105148333Y-68214819D02*
X104815000Y-67738628D01*
X104576905Y-68214819D02*
X104576905Y-67214819D01*
X104576905Y-67214819D02*
X104957857Y-67214819D01*
X104957857Y-67214819D02*
X105053095Y-67262438D01*
X105053095Y-67262438D02*
X105100714Y-67310057D01*
X105100714Y-67310057D02*
X105148333Y-67405295D01*
X105148333Y-67405295D02*
X105148333Y-67548152D01*
X105148333Y-67548152D02*
X105100714Y-67643390D01*
X105100714Y-67643390D02*
X105053095Y-67691009D01*
X105053095Y-67691009D02*
X104957857Y-67738628D01*
X104957857Y-67738628D02*
X104576905Y-67738628D01*
X105624524Y-68214819D02*
X105815000Y-68214819D01*
X105815000Y-68214819D02*
X105910238Y-68167200D01*
X105910238Y-68167200D02*
X105957857Y-68119580D01*
X105957857Y-68119580D02*
X106053095Y-67976723D01*
X106053095Y-67976723D02*
X106100714Y-67786247D01*
X106100714Y-67786247D02*
X106100714Y-67405295D01*
X106100714Y-67405295D02*
X106053095Y-67310057D01*
X106053095Y-67310057D02*
X106005476Y-67262438D01*
X106005476Y-67262438D02*
X105910238Y-67214819D01*
X105910238Y-67214819D02*
X105719762Y-67214819D01*
X105719762Y-67214819D02*
X105624524Y-67262438D01*
X105624524Y-67262438D02*
X105576905Y-67310057D01*
X105576905Y-67310057D02*
X105529286Y-67405295D01*
X105529286Y-67405295D02*
X105529286Y-67643390D01*
X105529286Y-67643390D02*
X105576905Y-67738628D01*
X105576905Y-67738628D02*
X105624524Y-67786247D01*
X105624524Y-67786247D02*
X105719762Y-67833866D01*
X105719762Y-67833866D02*
X105910238Y-67833866D01*
X105910238Y-67833866D02*
X106005476Y-67786247D01*
X106005476Y-67786247D02*
X106053095Y-67738628D01*
X106053095Y-67738628D02*
X106100714Y-67643390D01*
X165278571Y-52084819D02*
X164945238Y-51608628D01*
X164707143Y-52084819D02*
X164707143Y-51084819D01*
X164707143Y-51084819D02*
X165088095Y-51084819D01*
X165088095Y-51084819D02*
X165183333Y-51132438D01*
X165183333Y-51132438D02*
X165230952Y-51180057D01*
X165230952Y-51180057D02*
X165278571Y-51275295D01*
X165278571Y-51275295D02*
X165278571Y-51418152D01*
X165278571Y-51418152D02*
X165230952Y-51513390D01*
X165230952Y-51513390D02*
X165183333Y-51561009D01*
X165183333Y-51561009D02*
X165088095Y-51608628D01*
X165088095Y-51608628D02*
X164707143Y-51608628D01*
X165564286Y-51084819D02*
X165897619Y-52084819D01*
X165897619Y-52084819D02*
X166230952Y-51084819D01*
X166992857Y-51418152D02*
X166992857Y-52084819D01*
X166754762Y-51037200D02*
X166516667Y-51751485D01*
X166516667Y-51751485D02*
X167135714Y-51751485D01*
X167707143Y-51084819D02*
X167802381Y-51084819D01*
X167802381Y-51084819D02*
X167897619Y-51132438D01*
X167897619Y-51132438D02*
X167945238Y-51180057D01*
X167945238Y-51180057D02*
X167992857Y-51275295D01*
X167992857Y-51275295D02*
X168040476Y-51465771D01*
X168040476Y-51465771D02*
X168040476Y-51703866D01*
X168040476Y-51703866D02*
X167992857Y-51894342D01*
X167992857Y-51894342D02*
X167945238Y-51989580D01*
X167945238Y-51989580D02*
X167897619Y-52037200D01*
X167897619Y-52037200D02*
X167802381Y-52084819D01*
X167802381Y-52084819D02*
X167707143Y-52084819D01*
X167707143Y-52084819D02*
X167611905Y-52037200D01*
X167611905Y-52037200D02*
X167564286Y-51989580D01*
X167564286Y-51989580D02*
X167516667Y-51894342D01*
X167516667Y-51894342D02*
X167469048Y-51703866D01*
X167469048Y-51703866D02*
X167469048Y-51465771D01*
X167469048Y-51465771D02*
X167516667Y-51275295D01*
X167516667Y-51275295D02*
X167564286Y-51180057D01*
X167564286Y-51180057D02*
X167611905Y-51132438D01*
X167611905Y-51132438D02*
X167707143Y-51084819D01*
X69564761Y-106390057D02*
X69469523Y-106342438D01*
X69469523Y-106342438D02*
X69374285Y-106247200D01*
X69374285Y-106247200D02*
X69231428Y-106104342D01*
X69231428Y-106104342D02*
X69136190Y-106056723D01*
X69136190Y-106056723D02*
X69040952Y-106056723D01*
X69088571Y-106294819D02*
X68993333Y-106247200D01*
X68993333Y-106247200D02*
X68898095Y-106151961D01*
X68898095Y-106151961D02*
X68850476Y-105961485D01*
X68850476Y-105961485D02*
X68850476Y-105628152D01*
X68850476Y-105628152D02*
X68898095Y-105437676D01*
X68898095Y-105437676D02*
X68993333Y-105342438D01*
X68993333Y-105342438D02*
X69088571Y-105294819D01*
X69088571Y-105294819D02*
X69279047Y-105294819D01*
X69279047Y-105294819D02*
X69374285Y-105342438D01*
X69374285Y-105342438D02*
X69469523Y-105437676D01*
X69469523Y-105437676D02*
X69517142Y-105628152D01*
X69517142Y-105628152D02*
X69517142Y-105961485D01*
X69517142Y-105961485D02*
X69469523Y-106151961D01*
X69469523Y-106151961D02*
X69374285Y-106247200D01*
X69374285Y-106247200D02*
X69279047Y-106294819D01*
X69279047Y-106294819D02*
X69088571Y-106294819D01*
X70469523Y-106294819D02*
X69898095Y-106294819D01*
X70183809Y-106294819D02*
X70183809Y-105294819D01*
X70183809Y-105294819D02*
X70088571Y-105437676D01*
X70088571Y-105437676D02*
X69993333Y-105532914D01*
X69993333Y-105532914D02*
X69898095Y-105580533D01*
X122276666Y-115644819D02*
X122276666Y-116359104D01*
X122276666Y-116359104D02*
X122229047Y-116501961D01*
X122229047Y-116501961D02*
X122133809Y-116597200D01*
X122133809Y-116597200D02*
X121990952Y-116644819D01*
X121990952Y-116644819D02*
X121895714Y-116644819D01*
X123276666Y-116644819D02*
X122705238Y-116644819D01*
X122990952Y-116644819D02*
X122990952Y-115644819D01*
X122990952Y-115644819D02*
X122895714Y-115787676D01*
X122895714Y-115787676D02*
X122800476Y-115882914D01*
X122800476Y-115882914D02*
X122705238Y-115930533D01*
X104672142Y-55124819D02*
X104338809Y-54648628D01*
X104100714Y-55124819D02*
X104100714Y-54124819D01*
X104100714Y-54124819D02*
X104481666Y-54124819D01*
X104481666Y-54124819D02*
X104576904Y-54172438D01*
X104576904Y-54172438D02*
X104624523Y-54220057D01*
X104624523Y-54220057D02*
X104672142Y-54315295D01*
X104672142Y-54315295D02*
X104672142Y-54458152D01*
X104672142Y-54458152D02*
X104624523Y-54553390D01*
X104624523Y-54553390D02*
X104576904Y-54601009D01*
X104576904Y-54601009D02*
X104481666Y-54648628D01*
X104481666Y-54648628D02*
X104100714Y-54648628D01*
X105053095Y-54220057D02*
X105100714Y-54172438D01*
X105100714Y-54172438D02*
X105195952Y-54124819D01*
X105195952Y-54124819D02*
X105434047Y-54124819D01*
X105434047Y-54124819D02*
X105529285Y-54172438D01*
X105529285Y-54172438D02*
X105576904Y-54220057D01*
X105576904Y-54220057D02*
X105624523Y-54315295D01*
X105624523Y-54315295D02*
X105624523Y-54410533D01*
X105624523Y-54410533D02*
X105576904Y-54553390D01*
X105576904Y-54553390D02*
X105005476Y-55124819D01*
X105005476Y-55124819D02*
X105624523Y-55124819D01*
X106481666Y-54124819D02*
X106291190Y-54124819D01*
X106291190Y-54124819D02*
X106195952Y-54172438D01*
X106195952Y-54172438D02*
X106148333Y-54220057D01*
X106148333Y-54220057D02*
X106053095Y-54362914D01*
X106053095Y-54362914D02*
X106005476Y-54553390D01*
X106005476Y-54553390D02*
X106005476Y-54934342D01*
X106005476Y-54934342D02*
X106053095Y-55029580D01*
X106053095Y-55029580D02*
X106100714Y-55077200D01*
X106100714Y-55077200D02*
X106195952Y-55124819D01*
X106195952Y-55124819D02*
X106386428Y-55124819D01*
X106386428Y-55124819D02*
X106481666Y-55077200D01*
X106481666Y-55077200D02*
X106529285Y-55029580D01*
X106529285Y-55029580D02*
X106576904Y-54934342D01*
X106576904Y-54934342D02*
X106576904Y-54696247D01*
X106576904Y-54696247D02*
X106529285Y-54601009D01*
X106529285Y-54601009D02*
X106481666Y-54553390D01*
X106481666Y-54553390D02*
X106386428Y-54505771D01*
X106386428Y-54505771D02*
X106195952Y-54505771D01*
X106195952Y-54505771D02*
X106100714Y-54553390D01*
X106100714Y-54553390D02*
X106053095Y-54601009D01*
X106053095Y-54601009D02*
X106005476Y-54696247D01*
X187988571Y-131674819D02*
X187655238Y-131198628D01*
X187417143Y-131674819D02*
X187417143Y-130674819D01*
X187417143Y-130674819D02*
X187798095Y-130674819D01*
X187798095Y-130674819D02*
X187893333Y-130722438D01*
X187893333Y-130722438D02*
X187940952Y-130770057D01*
X187940952Y-130770057D02*
X187988571Y-130865295D01*
X187988571Y-130865295D02*
X187988571Y-131008152D01*
X187988571Y-131008152D02*
X187940952Y-131103390D01*
X187940952Y-131103390D02*
X187893333Y-131151009D01*
X187893333Y-131151009D02*
X187798095Y-131198628D01*
X187798095Y-131198628D02*
X187417143Y-131198628D01*
X188274286Y-130674819D02*
X188607619Y-131674819D01*
X188607619Y-131674819D02*
X188940952Y-130674819D01*
X189702857Y-131008152D02*
X189702857Y-131674819D01*
X189464762Y-130627200D02*
X189226667Y-131341485D01*
X189226667Y-131341485D02*
X189845714Y-131341485D01*
X190655238Y-131008152D02*
X190655238Y-131674819D01*
X190417143Y-130627200D02*
X190179048Y-131341485D01*
X190179048Y-131341485D02*
X190798095Y-131341485D01*
D11*
%TO.C,R34*%
X108585000Y-59165000D02*
X108585000Y-58835000D01*
X108585000Y-56425000D02*
X108585000Y-56755000D01*
X102045000Y-59165000D02*
X108585000Y-59165000D01*
X102045000Y-58835000D02*
X102045000Y-59165000D01*
X102045000Y-56755000D02*
X102045000Y-56425000D01*
X102045000Y-56425000D02*
X108585000Y-56425000D01*
%TO.C,R22*%
X100515000Y-72005000D02*
X100845000Y-72005000D01*
X100515000Y-78545000D02*
X100515000Y-72005000D01*
X100845000Y-78545000D02*
X100515000Y-78545000D01*
X102925000Y-78545000D02*
X103255000Y-78545000D01*
X103255000Y-72005000D02*
X102925000Y-72005000D01*
X103255000Y-78545000D02*
X103255000Y-72005000D01*
%TO.C,R20*%
X77115000Y-119985000D02*
X83655000Y-119985000D01*
X77115000Y-120315000D02*
X77115000Y-119985000D01*
X77115000Y-122395000D02*
X77115000Y-122725000D01*
X77115000Y-122725000D02*
X83655000Y-122725000D01*
X83655000Y-119985000D02*
X83655000Y-120315000D01*
X83655000Y-122725000D02*
X83655000Y-122395000D01*
%TO.C,R33*%
X77055000Y-123465000D02*
X83595000Y-123465000D01*
X77055000Y-123795000D02*
X77055000Y-123465000D01*
X77055000Y-125875000D02*
X77055000Y-126205000D01*
X77055000Y-126205000D02*
X83595000Y-126205000D01*
X83595000Y-123465000D02*
X83595000Y-123795000D01*
X83595000Y-126205000D02*
X83595000Y-125875000D01*
%TO.C,R19*%
X79285000Y-108935000D02*
X79615000Y-108935000D01*
X79285000Y-115475000D02*
X79285000Y-108935000D01*
X79615000Y-115475000D02*
X79285000Y-115475000D01*
X81695000Y-115475000D02*
X82025000Y-115475000D01*
X82025000Y-108935000D02*
X81695000Y-108935000D01*
X82025000Y-115475000D02*
X82025000Y-108935000D01*
%TO.C,D2*%
X77675000Y-82015000D02*
X78325000Y-82015000D01*
X78325000Y-80895000D02*
X78325000Y-83135000D01*
X78325000Y-83135000D02*
X82565000Y-83135000D01*
X78925000Y-80895000D02*
X78925000Y-83135000D01*
X79045000Y-80895000D02*
X79045000Y-83135000D01*
X79165000Y-80895000D02*
X79165000Y-83135000D01*
X82565000Y-80895000D02*
X78325000Y-80895000D01*
X82565000Y-83135000D02*
X82565000Y-80895000D01*
X83215000Y-82015000D02*
X82565000Y-82015000D01*
%TO.C,C11*%
X97130000Y-95350000D02*
X97130000Y-98090000D01*
X97130000Y-95350000D02*
X102370000Y-95350000D01*
X97130000Y-98090000D02*
X102370000Y-98090000D01*
X102370000Y-95350000D02*
X102370000Y-98090000D01*
%TO.C,TH11*%
X77175000Y-73735000D02*
X83715000Y-73735000D01*
X77175000Y-74065000D02*
X77175000Y-73735000D01*
X77175000Y-76145000D02*
X77175000Y-76475000D01*
X77175000Y-76475000D02*
X83715000Y-76475000D01*
X83715000Y-73735000D02*
X83715000Y-74065000D01*
X83715000Y-76475000D02*
X83715000Y-76145000D01*
%TO.C,R54*%
X156920000Y-66480000D02*
X156920000Y-73020000D01*
X156920000Y-73020000D02*
X157250000Y-73020000D01*
X157250000Y-66480000D02*
X156920000Y-66480000D01*
X159330000Y-66480000D02*
X159660000Y-66480000D01*
X159660000Y-66480000D02*
X159660000Y-73020000D01*
X159660000Y-73020000D02*
X159330000Y-73020000D01*
D12*
%TO.C,RV1*%
X61035000Y-59725000D02*
X64425000Y-59725000D01*
X61035000Y-69225000D02*
X61035000Y-59725000D01*
X64425000Y-69225000D02*
X61035000Y-69225000D01*
X67345000Y-59725000D02*
X72385000Y-59725000D01*
X72385000Y-59725000D02*
X72385000Y-60901000D01*
X72385000Y-68049000D02*
X72385000Y-69225000D01*
X72385000Y-69225000D02*
X67345000Y-69225000D01*
D13*
X74735000Y-66975000D02*
G75*
G02*
X74535000Y-66975000I-100000J0D01*
G01*
X74535000Y-66975000D02*
G75*
G02*
X74735000Y-66975000I100000J0D01*
G01*
D11*
%TO.C,U4*%
X89115000Y-110730000D02*
X89115000Y-128630000D01*
X89115000Y-128630000D02*
X94415000Y-128630000D01*
X90765000Y-110730000D02*
X89115000Y-110730000D01*
X94415000Y-110730000D02*
X92765000Y-110730000D01*
X94415000Y-128630000D02*
X94415000Y-110730000D01*
X86625000Y-110670000D02*
X96905000Y-110670000D01*
X96905000Y-128690000D01*
X86625000Y-128690000D01*
X86625000Y-110670000D01*
X92765000Y-110730000D02*
G75*
G02*
X90765000Y-110730000I-1000000J0D01*
G01*
D12*
%TO.C,J17*%
X184500000Y-47200000D02*
X193500000Y-47200000D01*
X184500000Y-52150000D02*
X184500000Y-47200000D01*
X184500000Y-57800000D02*
X184500000Y-56050000D01*
X193500000Y-49650000D02*
X193500000Y-47200000D01*
X193500000Y-57800000D02*
X184500000Y-57800000D01*
X193500000Y-57800000D02*
X193500000Y-53550000D01*
D13*
X194300000Y-51600000D02*
G75*
G02*
X194100000Y-51600000I-100000J0D01*
G01*
X194100000Y-51600000D02*
G75*
G02*
X194300000Y-51600000I100000J0D01*
G01*
D11*
%TO.C,R60*%
X102045000Y-59655000D02*
X102045000Y-59985000D01*
X102045000Y-62395000D02*
X102045000Y-62065000D01*
X108585000Y-59655000D02*
X102045000Y-59655000D01*
X108585000Y-59985000D02*
X108585000Y-59655000D01*
X108585000Y-62065000D02*
X108585000Y-62395000D01*
X108585000Y-62395000D02*
X102045000Y-62395000D01*
%TO.C,R5*%
X102045000Y-62925000D02*
X102045000Y-63255000D01*
X102045000Y-65665000D02*
X102045000Y-65335000D01*
X108585000Y-62925000D02*
X102045000Y-62925000D01*
X108585000Y-63255000D02*
X108585000Y-62925000D01*
X108585000Y-65335000D02*
X108585000Y-65665000D01*
X108585000Y-65665000D02*
X102045000Y-65665000D01*
%TO.C,R52*%
X77175000Y-86965000D02*
X83715000Y-86965000D01*
X77175000Y-87295000D02*
X77175000Y-86965000D01*
X77175000Y-89375000D02*
X77175000Y-89705000D01*
X77175000Y-89705000D02*
X83715000Y-89705000D01*
X83715000Y-86965000D02*
X83715000Y-87295000D01*
X83715000Y-89705000D02*
X83715000Y-89375000D01*
%TO.C,R23*%
X70980000Y-91620000D02*
X70980000Y-91950000D01*
X70980000Y-94360000D02*
X70980000Y-94030000D01*
X77520000Y-91620000D02*
X70980000Y-91620000D01*
X77520000Y-91950000D02*
X77520000Y-91620000D01*
X77520000Y-94030000D02*
X77520000Y-94360000D01*
X77520000Y-94360000D02*
X70980000Y-94360000D01*
D12*
%TO.C,J10*%
X184500000Y-85920000D02*
X193500000Y-85920000D01*
X184500000Y-90870000D02*
X184500000Y-85920000D01*
X184500000Y-96520000D02*
X184500000Y-94770000D01*
X193500000Y-88370000D02*
X193500000Y-85920000D01*
X193500000Y-96520000D02*
X184500000Y-96520000D01*
X193500000Y-96520000D02*
X193500000Y-92270000D01*
D13*
X194300000Y-90320000D02*
G75*
G02*
X194100000Y-90320000I-100000J0D01*
G01*
X194100000Y-90320000D02*
G75*
G02*
X194300000Y-90320000I100000J0D01*
G01*
D11*
%TO.C,R12*%
X102020000Y-80420000D02*
X108560000Y-80420000D01*
X102020000Y-80750000D02*
X102020000Y-80420000D01*
X102020000Y-82830000D02*
X102020000Y-83160000D01*
X102020000Y-83160000D02*
X108560000Y-83160000D01*
X108560000Y-80420000D02*
X108560000Y-80750000D01*
X108560000Y-83160000D02*
X108560000Y-82830000D01*
%TO.C,R10*%
X112405000Y-66385000D02*
X112405000Y-66715000D01*
X112405000Y-69125000D02*
X112405000Y-68795000D01*
X118945000Y-66385000D02*
X112405000Y-66385000D01*
X118945000Y-66715000D02*
X118945000Y-66385000D01*
X118945000Y-68795000D02*
X118945000Y-69125000D01*
X118945000Y-69125000D02*
X112405000Y-69125000D01*
%TO.C,R15*%
X77705000Y-102905000D02*
X77705000Y-103235000D01*
X77705000Y-105645000D02*
X77705000Y-105315000D01*
X84245000Y-102905000D02*
X77705000Y-102905000D01*
X84245000Y-103235000D02*
X84245000Y-102905000D01*
X84245000Y-105315000D02*
X84245000Y-105645000D01*
X84245000Y-105645000D02*
X77705000Y-105645000D01*
%TO.C,R35*%
X100050000Y-123580000D02*
X100050000Y-123910000D01*
X100050000Y-126320000D02*
X100050000Y-125990000D01*
X106590000Y-123580000D02*
X100050000Y-123580000D01*
X106590000Y-123910000D02*
X106590000Y-123580000D01*
X106590000Y-125990000D02*
X106590000Y-126320000D01*
X106590000Y-126320000D02*
X100050000Y-126320000D01*
%TO.C,R48*%
X79895000Y-93085000D02*
X80225000Y-93085000D01*
X79895000Y-99625000D02*
X79895000Y-93085000D01*
X80225000Y-99625000D02*
X79895000Y-99625000D01*
X82305000Y-99625000D02*
X82635000Y-99625000D01*
X82635000Y-93085000D02*
X82305000Y-93085000D01*
X82635000Y-99625000D02*
X82635000Y-93085000D01*
%TO.C,U2*%
X91765000Y-59485000D02*
X89815000Y-59485000D01*
X91765000Y-59485000D02*
X93715000Y-59485000D01*
X91765000Y-69605000D02*
X89815000Y-69605000D01*
X91765000Y-69605000D02*
X93715000Y-69605000D01*
X89065000Y-59540000D02*
X88825000Y-59210000D01*
X89305000Y-59210000D01*
X89065000Y-59540000D01*
G36*
X89065000Y-59540000D02*
G01*
X88825000Y-59210000D01*
X89305000Y-59210000D01*
X89065000Y-59540000D01*
G37*
D12*
%TO.C,RV43*%
X161765000Y-126192500D02*
X171265000Y-126192500D01*
X161765000Y-129582500D02*
X161765000Y-126192500D01*
X161765000Y-137542500D02*
X161765000Y-132502500D01*
X162941000Y-137542500D02*
X161765000Y-137542500D01*
X171265000Y-126192500D02*
X171265000Y-129582500D01*
X171265000Y-132502500D02*
X171265000Y-137542500D01*
X171265000Y-137542500D02*
X170089000Y-137542500D01*
D13*
X164115000Y-139792500D02*
G75*
G02*
X163915000Y-139792500I-100000J0D01*
G01*
X163915000Y-139792500D02*
G75*
G02*
X164115000Y-139792500I100000J0D01*
G01*
D11*
%TO.C,D1*%
X63980000Y-116325000D02*
X64630000Y-116325000D01*
X64630000Y-115205000D02*
X64630000Y-117445000D01*
X64630000Y-117445000D02*
X68870000Y-117445000D01*
X68030000Y-117445000D02*
X68030000Y-115205000D01*
X68150000Y-117445000D02*
X68150000Y-115205000D01*
X68270000Y-117445000D02*
X68270000Y-115205000D01*
X68870000Y-115205000D02*
X64630000Y-115205000D01*
X68870000Y-117445000D02*
X68870000Y-115205000D01*
X69520000Y-116325000D02*
X68870000Y-116325000D01*
D12*
%TO.C,J6*%
X139127500Y-47200000D02*
X148127500Y-47200000D01*
X139127500Y-52150000D02*
X139127500Y-47200000D01*
X139127500Y-57800000D02*
X139127500Y-56050000D01*
X148127500Y-49650000D02*
X148127500Y-47200000D01*
X148127500Y-57800000D02*
X139127500Y-57800000D01*
X148127500Y-57800000D02*
X148127500Y-53550000D01*
D13*
X148927500Y-51600000D02*
G75*
G02*
X148727500Y-51600000I-100000J0D01*
G01*
X148727500Y-51600000D02*
G75*
G02*
X148927500Y-51600000I100000J0D01*
G01*
D11*
%TO.C,R6*%
X78370000Y-65765000D02*
X84910000Y-65765000D01*
X78370000Y-66095000D02*
X78370000Y-65765000D01*
X78370000Y-68175000D02*
X78370000Y-68505000D01*
X78370000Y-68505000D02*
X84910000Y-68505000D01*
X84910000Y-65765000D02*
X84910000Y-66095000D01*
X84910000Y-68505000D02*
X84910000Y-68175000D01*
D12*
%TO.C,J9*%
X184500000Y-105254375D02*
X193500000Y-105254375D01*
X184500000Y-110204375D02*
X184500000Y-105254375D01*
X184500000Y-115854375D02*
X184500000Y-114104375D01*
X193500000Y-107704375D02*
X193500000Y-105254375D01*
X193500000Y-115854375D02*
X184500000Y-115854375D01*
X193500000Y-115854375D02*
X193500000Y-111604375D01*
D13*
X194300000Y-109654375D02*
G75*
G02*
X194100000Y-109654375I-100000J0D01*
G01*
X194100000Y-109654375D02*
G75*
G02*
X194300000Y-109654375I100000J0D01*
G01*
D11*
%TO.C,J15*%
X133510000Y-120270000D02*
X133510000Y-133030000D01*
X133510000Y-120270000D02*
X136170000Y-120270000D01*
X133510000Y-133030000D02*
X136170000Y-133030000D01*
X134840000Y-117670000D02*
X136170000Y-117670000D01*
X136170000Y-117670000D02*
X136170000Y-119000000D01*
X136170000Y-120270000D02*
X136170000Y-133030000D01*
%TO.C,R51*%
X77175000Y-76895000D02*
X83715000Y-76895000D01*
X77175000Y-77225000D02*
X77175000Y-76895000D01*
X77175000Y-79305000D02*
X77175000Y-79635000D01*
X77175000Y-79635000D02*
X83715000Y-79635000D01*
X83715000Y-76895000D02*
X83715000Y-77225000D01*
X83715000Y-79635000D02*
X83715000Y-79305000D01*
D12*
%TO.C,RV42*%
X161876250Y-106222500D02*
X171376250Y-106222500D01*
X161876250Y-109612500D02*
X161876250Y-106222500D01*
X161876250Y-117572500D02*
X161876250Y-112532500D01*
X163052250Y-117572500D02*
X161876250Y-117572500D01*
X171376250Y-106222500D02*
X171376250Y-109612500D01*
X171376250Y-112532500D02*
X171376250Y-117572500D01*
X171376250Y-117572500D02*
X170200250Y-117572500D01*
D13*
X164226250Y-119822500D02*
G75*
G02*
X164026250Y-119822500I-100000J0D01*
G01*
X164026250Y-119822500D02*
G75*
G02*
X164226250Y-119822500I100000J0D01*
G01*
D12*
%TO.C,RV36*%
X61035000Y-73455000D02*
X64425000Y-73455000D01*
X61035000Y-82955000D02*
X61035000Y-73455000D01*
X64425000Y-82955000D02*
X61035000Y-82955000D01*
X67345000Y-73455000D02*
X72385000Y-73455000D01*
X72385000Y-73455000D02*
X72385000Y-74631000D01*
X72385000Y-81779000D02*
X72385000Y-82955000D01*
X72385000Y-82955000D02*
X67345000Y-82955000D01*
D13*
X74735000Y-80705000D02*
G75*
G02*
X74535000Y-80705000I-100000J0D01*
G01*
X74535000Y-80705000D02*
G75*
G02*
X74735000Y-80705000I100000J0D01*
G01*
D11*
%TO.C,R31*%
X63480000Y-111980000D02*
X70020000Y-111980000D01*
X63480000Y-112310000D02*
X63480000Y-111980000D01*
X63480000Y-114390000D02*
X63480000Y-114720000D01*
X63480000Y-114720000D02*
X70020000Y-114720000D01*
X70020000Y-111980000D02*
X70020000Y-112310000D01*
X70020000Y-114720000D02*
X70020000Y-114390000D01*
%TO.C,R29*%
X159610000Y-60990000D02*
X166150000Y-60990000D01*
X159610000Y-61320000D02*
X159610000Y-60990000D01*
X159610000Y-63400000D02*
X159610000Y-63730000D01*
X159610000Y-63730000D02*
X166150000Y-63730000D01*
X166150000Y-60990000D02*
X166150000Y-61320000D01*
X166150000Y-63730000D02*
X166150000Y-63400000D01*
%TO.C,R4*%
X88610000Y-107100000D02*
X95150000Y-107100000D01*
X88610000Y-107430000D02*
X88610000Y-107100000D01*
X88610000Y-109510000D02*
X88610000Y-109840000D01*
X88610000Y-109840000D02*
X95150000Y-109840000D01*
X95150000Y-107100000D02*
X95150000Y-107430000D01*
X95150000Y-109840000D02*
X95150000Y-109510000D01*
%TO.C,R50*%
X102020000Y-46630000D02*
X108560000Y-46630000D01*
X102020000Y-46960000D02*
X102020000Y-46630000D01*
X102020000Y-49040000D02*
X102020000Y-49370000D01*
X102020000Y-49370000D02*
X108560000Y-49370000D01*
X108560000Y-46630000D02*
X108560000Y-46960000D01*
X108560000Y-49370000D02*
X108560000Y-49040000D01*
D12*
%TO.C,RV41*%
X161876250Y-66282500D02*
X171376250Y-66282500D01*
X161876250Y-69672500D02*
X161876250Y-66282500D01*
X161876250Y-77632500D02*
X161876250Y-72592500D01*
X163052250Y-77632500D02*
X161876250Y-77632500D01*
X171376250Y-66282500D02*
X171376250Y-69672500D01*
X171376250Y-72592500D02*
X171376250Y-77632500D01*
X171376250Y-77632500D02*
X170200250Y-77632500D01*
D13*
X164226250Y-79882500D02*
G75*
G02*
X164026250Y-79882500I-100000J0D01*
G01*
X164026250Y-79882500D02*
G75*
G02*
X164226250Y-79882500I100000J0D01*
G01*
D11*
%TO.C,C12*%
X160150000Y-123170000D02*
X160150000Y-120430000D01*
X165390000Y-120430000D02*
X160150000Y-120430000D01*
X165390000Y-123170000D02*
X160150000Y-123170000D01*
X165390000Y-123170000D02*
X165390000Y-120430000D01*
%TO.C,J1*%
X83360000Y-38890000D02*
X84690000Y-38890000D01*
X83360000Y-40220000D02*
X83360000Y-38890000D01*
X85960000Y-38890000D02*
X98720000Y-38890000D01*
X85960000Y-41550000D02*
X85960000Y-38890000D01*
X85960000Y-41550000D02*
X98720000Y-41550000D01*
X98720000Y-41550000D02*
X98720000Y-38890000D01*
%TO.C,R47*%
X101847500Y-115140000D02*
X101847500Y-121680000D01*
X101847500Y-121680000D02*
X102177500Y-121680000D01*
X102177500Y-115140000D02*
X101847500Y-115140000D01*
X104257500Y-115140000D02*
X104587500Y-115140000D01*
X104587500Y-115140000D02*
X104587500Y-121680000D01*
X104587500Y-121680000D02*
X104257500Y-121680000D01*
%TO.C,R32*%
X77145000Y-130335000D02*
X83685000Y-130335000D01*
X77145000Y-130665000D02*
X77145000Y-130335000D01*
X77145000Y-132745000D02*
X77145000Y-133075000D01*
X77145000Y-133075000D02*
X83685000Y-133075000D01*
X83685000Y-130335000D02*
X83685000Y-130665000D01*
X83685000Y-133075000D02*
X83685000Y-132745000D01*
D12*
%TO.C,J5*%
X139127500Y-87140000D02*
X148127500Y-87140000D01*
X139127500Y-92090000D02*
X139127500Y-87140000D01*
X139127500Y-97740000D02*
X139127500Y-95990000D01*
X148127500Y-89590000D02*
X148127500Y-87140000D01*
X148127500Y-97740000D02*
X139127500Y-97740000D01*
X148127500Y-97740000D02*
X148127500Y-93490000D01*
D13*
X148927500Y-91540000D02*
G75*
G02*
X148727500Y-91540000I-100000J0D01*
G01*
X148727500Y-91540000D02*
G75*
G02*
X148927500Y-91540000I100000J0D01*
G01*
D11*
%TO.C,R3*%
X102020000Y-49935000D02*
X102020000Y-50265000D01*
X102020000Y-52675000D02*
X102020000Y-52345000D01*
X108560000Y-49935000D02*
X102020000Y-49935000D01*
X108560000Y-50265000D02*
X108560000Y-49935000D01*
X108560000Y-52345000D02*
X108560000Y-52675000D01*
X108560000Y-52675000D02*
X102020000Y-52675000D01*
%TO.C,R45*%
X98590000Y-115140000D02*
X98920000Y-115140000D01*
X98590000Y-121680000D02*
X98590000Y-115140000D01*
X98920000Y-121680000D02*
X98590000Y-121680000D01*
X101000000Y-121680000D02*
X101330000Y-121680000D01*
X101330000Y-115140000D02*
X101000000Y-115140000D01*
X101330000Y-121680000D02*
X101330000Y-115140000D01*
%TO.C,R61*%
X88440000Y-70200000D02*
X88440000Y-70530000D01*
X88440000Y-72940000D02*
X88440000Y-72610000D01*
X94980000Y-70200000D02*
X88440000Y-70200000D01*
X94980000Y-70530000D02*
X94980000Y-70200000D01*
X94980000Y-72610000D02*
X94980000Y-72940000D01*
X94980000Y-72940000D02*
X88440000Y-72940000D01*
D12*
%TO.C,J11*%
X139127500Y-127080000D02*
X148127500Y-127080000D01*
X139127500Y-132030000D02*
X139127500Y-127080000D01*
X139127500Y-137680000D02*
X139127500Y-135930000D01*
X148127500Y-129530000D02*
X148127500Y-127080000D01*
X148127500Y-137680000D02*
X139127500Y-137680000D01*
X148127500Y-137680000D02*
X148127500Y-133430000D01*
D13*
X148927500Y-131480000D02*
G75*
G02*
X148727500Y-131480000I-100000J0D01*
G01*
X148727500Y-131480000D02*
G75*
G02*
X148927500Y-131480000I100000J0D01*
G01*
D12*
%TO.C,J7*%
X139127500Y-107110000D02*
X148127500Y-107110000D01*
X139127500Y-112060000D02*
X139127500Y-107110000D01*
X139127500Y-117710000D02*
X139127500Y-115960000D01*
X148127500Y-109560000D02*
X148127500Y-107110000D01*
X148127500Y-117710000D02*
X139127500Y-117710000D01*
X148127500Y-117710000D02*
X148127500Y-113460000D01*
D13*
X148927500Y-111510000D02*
G75*
G02*
X148727500Y-111510000I-100000J0D01*
G01*
X148727500Y-111510000D02*
G75*
G02*
X148927500Y-111510000I100000J0D01*
G01*
D11*
%TO.C,RV24*%
X76765000Y-44205000D02*
X76765000Y-49255000D01*
X76765000Y-44205000D02*
X86515000Y-44205000D01*
X76765000Y-49255000D02*
X86515000Y-49255000D01*
X86515000Y-44205000D02*
X86515000Y-49255000D01*
%TO.C,J1*%
X158820000Y-38890000D02*
X160150000Y-38890000D01*
X158820000Y-40220000D02*
X158820000Y-38890000D01*
X161420000Y-38890000D02*
X174180000Y-38890000D01*
X161420000Y-41550000D02*
X161420000Y-38890000D01*
X161420000Y-41550000D02*
X174180000Y-41550000D01*
X174180000Y-41550000D02*
X174180000Y-38890000D01*
%TO.C,RV37*%
X69610000Y-123265000D02*
X69610000Y-133015000D01*
X74660000Y-123265000D02*
X69610000Y-123265000D01*
X74660000Y-123265000D02*
X74660000Y-133015000D01*
X74660000Y-133015000D02*
X69610000Y-133015000D01*
%TO.C,C2*%
X61555000Y-106305000D02*
X61555000Y-111545000D01*
X64295000Y-106305000D02*
X61555000Y-106305000D01*
X64295000Y-106305000D02*
X64295000Y-111545000D01*
X64295000Y-111545000D02*
X61555000Y-111545000D01*
%TO.C,U3*%
X89115000Y-74340000D02*
X89115000Y-92240000D01*
X89115000Y-92240000D02*
X94415000Y-92240000D01*
X90765000Y-74340000D02*
X89115000Y-74340000D01*
X94415000Y-74340000D02*
X92765000Y-74340000D01*
X94415000Y-92240000D02*
X94415000Y-74340000D01*
X86625000Y-74280000D02*
X96905000Y-74280000D01*
X96905000Y-92300000D01*
X86625000Y-92300000D01*
X86625000Y-74280000D01*
X92765000Y-74340000D02*
G75*
G02*
X90765000Y-74340000I-1000000J0D01*
G01*
%TO.C,R21*%
X103910000Y-71980000D02*
X104240000Y-71980000D01*
X103910000Y-78520000D02*
X103910000Y-71980000D01*
X104240000Y-78520000D02*
X103910000Y-78520000D01*
X106320000Y-78520000D02*
X106650000Y-78520000D01*
X106650000Y-71980000D02*
X106320000Y-71980000D01*
X106650000Y-78520000D02*
X106650000Y-71980000D01*
%TO.C,R8*%
X111545000Y-115140000D02*
X111545000Y-121680000D01*
X111545000Y-121680000D02*
X111875000Y-121680000D01*
X111875000Y-115140000D02*
X111545000Y-115140000D01*
X113955000Y-115140000D02*
X114285000Y-115140000D01*
X114285000Y-115140000D02*
X114285000Y-121680000D01*
X114285000Y-121680000D02*
X113955000Y-121680000D01*
%TO.C,R46*%
X84790000Y-133920000D02*
X84790000Y-134250000D01*
X84790000Y-136660000D02*
X84790000Y-136330000D01*
X91330000Y-133920000D02*
X84790000Y-133920000D01*
X91330000Y-134250000D02*
X91330000Y-133920000D01*
X91330000Y-136330000D02*
X91330000Y-136660000D01*
X91330000Y-136660000D02*
X84790000Y-136660000D01*
%TO.C,C4*%
X97490000Y-84450000D02*
X97490000Y-87190000D01*
X97490000Y-84450000D02*
X102730000Y-84450000D01*
X97490000Y-87190000D02*
X102730000Y-87190000D01*
X102730000Y-84450000D02*
X102730000Y-87190000D01*
%TO.C,J16*%
X196345000Y-98880000D02*
X196345000Y-104020000D01*
X196345000Y-98880000D02*
X199005000Y-98880000D01*
X196345000Y-104020000D02*
X199005000Y-104020000D01*
X197675000Y-96280000D02*
X199005000Y-96280000D01*
X199005000Y-96280000D02*
X199005000Y-97610000D01*
X199005000Y-98880000D02*
X199005000Y-104020000D01*
%TO.C,Q2*%
X70480000Y-87237500D02*
X71890000Y-87237500D01*
X70490000Y-89557500D02*
X71890000Y-89557500D01*
X70110000Y-87287500D02*
X69870000Y-86957500D01*
X70350000Y-86957500D01*
X70110000Y-87287500D01*
G36*
X70110000Y-87287500D02*
G01*
X69870000Y-86957500D01*
X70350000Y-86957500D01*
X70110000Y-87287500D01*
G37*
%TO.C,R30*%
X149040000Y-60990000D02*
X149040000Y-61320000D01*
X149040000Y-63730000D02*
X149040000Y-63400000D01*
X155580000Y-60990000D02*
X149040000Y-60990000D01*
X155580000Y-61320000D02*
X155580000Y-60990000D01*
X155580000Y-63400000D02*
X155580000Y-63730000D01*
X155580000Y-63730000D02*
X149040000Y-63730000D01*
%TO.C,R18*%
X82535000Y-108965000D02*
X82865000Y-108965000D01*
X82535000Y-115505000D02*
X82535000Y-108965000D01*
X82865000Y-115505000D02*
X82535000Y-115505000D01*
X84945000Y-115505000D02*
X85275000Y-115505000D01*
X85275000Y-108965000D02*
X84945000Y-108965000D01*
X85275000Y-115505000D02*
X85275000Y-108965000D01*
%TO.C,R28*%
X167310000Y-100950000D02*
X173850000Y-100950000D01*
X167310000Y-101280000D02*
X167310000Y-100950000D01*
X167310000Y-103360000D02*
X167310000Y-103690000D01*
X167310000Y-103690000D02*
X173850000Y-103690000D01*
X173850000Y-100950000D02*
X173850000Y-101280000D01*
X173850000Y-103690000D02*
X173850000Y-103360000D01*
%TO.C,R2*%
X66650000Y-54760000D02*
X73190000Y-54760000D01*
X66650000Y-55090000D02*
X66650000Y-54760000D01*
X66650000Y-57170000D02*
X66650000Y-57500000D01*
X66650000Y-57500000D02*
X73190000Y-57500000D01*
X73190000Y-54760000D02*
X73190000Y-55090000D01*
X73190000Y-57500000D02*
X73190000Y-57170000D01*
%TO.C,R14*%
X78370000Y-56175000D02*
X84910000Y-56175000D01*
X78370000Y-56505000D02*
X78370000Y-56175000D01*
X78370000Y-58585000D02*
X78370000Y-58915000D01*
X78370000Y-58915000D02*
X84910000Y-58915000D01*
X84910000Y-56175000D02*
X84910000Y-56505000D01*
X84910000Y-58915000D02*
X84910000Y-58585000D01*
%TO.C,R13*%
X108375000Y-115145000D02*
X108375000Y-121685000D01*
X108375000Y-121685000D02*
X108705000Y-121685000D01*
X108705000Y-115145000D02*
X108375000Y-115145000D01*
X110785000Y-115145000D02*
X111115000Y-115145000D01*
X111115000Y-115145000D02*
X111115000Y-121685000D01*
X111115000Y-121685000D02*
X110785000Y-121685000D01*
D12*
%TO.C,J4*%
X139127500Y-67170000D02*
X148127500Y-67170000D01*
X139127500Y-72120000D02*
X139127500Y-67170000D01*
X139127500Y-77770000D02*
X139127500Y-76020000D01*
X148127500Y-69620000D02*
X148127500Y-67170000D01*
X148127500Y-77770000D02*
X139127500Y-77770000D01*
X148127500Y-77770000D02*
X148127500Y-73520000D01*
D13*
X148927500Y-71570000D02*
G75*
G02*
X148727500Y-71570000I-100000J0D01*
G01*
X148727500Y-71570000D02*
G75*
G02*
X148927500Y-71570000I100000J0D01*
G01*
D11*
%TO.C,U1*%
X89120000Y-95410000D02*
X89120000Y-105690000D01*
X89120000Y-105690000D02*
X94420000Y-105690000D01*
X90770000Y-95410000D02*
X89120000Y-95410000D01*
X94420000Y-95410000D02*
X92770000Y-95410000D01*
X94420000Y-105690000D02*
X94420000Y-95410000D01*
X92770000Y-95410000D02*
G75*
G02*
X90770000Y-95410000I-1000000J0D01*
G01*
%TO.C,J13*%
X58535000Y-98985000D02*
X58535000Y-104125000D01*
X58535000Y-98985000D02*
X61195000Y-98985000D01*
X58535000Y-104125000D02*
X61195000Y-104125000D01*
X59865000Y-96385000D02*
X61195000Y-96385000D01*
X61195000Y-96385000D02*
X61195000Y-97715000D01*
X61195000Y-98985000D02*
X61195000Y-104125000D01*
D12*
%TO.C,RV39*%
X161876250Y-86252500D02*
X171376250Y-86252500D01*
X161876250Y-89642500D02*
X161876250Y-86252500D01*
X161876250Y-97602500D02*
X161876250Y-92562500D01*
X163052250Y-97602500D02*
X161876250Y-97602500D01*
X171376250Y-86252500D02*
X171376250Y-89642500D01*
X171376250Y-92562500D02*
X171376250Y-97602500D01*
X171376250Y-97602500D02*
X170200250Y-97602500D01*
D13*
X164226250Y-99852500D02*
G75*
G02*
X164026250Y-99852500I-100000J0D01*
G01*
X164026250Y-99852500D02*
G75*
G02*
X164226250Y-99852500I100000J0D01*
G01*
D12*
%TO.C,J8*%
X184500000Y-66780000D02*
X193500000Y-66780000D01*
X184500000Y-71730000D02*
X184500000Y-66780000D01*
X184500000Y-77380000D02*
X184500000Y-75630000D01*
X193500000Y-69230000D02*
X193500000Y-66780000D01*
X193500000Y-77380000D02*
X184500000Y-77380000D01*
X193500000Y-77380000D02*
X193500000Y-73130000D01*
D13*
X194300000Y-71180000D02*
G75*
G02*
X194100000Y-71180000I-100000J0D01*
G01*
X194100000Y-71180000D02*
G75*
G02*
X194300000Y-71180000I100000J0D01*
G01*
D11*
%TO.C,R9*%
X102045000Y-66385000D02*
X108585000Y-66385000D01*
X102045000Y-66715000D02*
X102045000Y-66385000D01*
X102045000Y-68795000D02*
X102045000Y-69125000D01*
X102045000Y-69125000D02*
X108585000Y-69125000D01*
X108585000Y-66385000D02*
X108585000Y-66715000D01*
X108585000Y-69125000D02*
X108585000Y-68795000D01*
D12*
%TO.C,RV40*%
X161876250Y-46312500D02*
X171376250Y-46312500D01*
X161876250Y-49702500D02*
X161876250Y-46312500D01*
X161876250Y-57662500D02*
X161876250Y-52622500D01*
X163052250Y-57662500D02*
X161876250Y-57662500D01*
X171376250Y-46312500D02*
X171376250Y-49702500D01*
X171376250Y-52622500D02*
X171376250Y-57662500D01*
X171376250Y-57662500D02*
X170200250Y-57662500D01*
D13*
X164226250Y-59912500D02*
G75*
G02*
X164026250Y-59912500I-100000J0D01*
G01*
X164026250Y-59912500D02*
G75*
G02*
X164226250Y-59912500I100000J0D01*
G01*
D11*
%TO.C,R7*%
X78370000Y-59335000D02*
X84910000Y-59335000D01*
X78370000Y-59665000D02*
X78370000Y-59335000D01*
X78370000Y-61745000D02*
X78370000Y-62075000D01*
X78370000Y-62075000D02*
X84910000Y-62075000D01*
X84910000Y-59335000D02*
X84910000Y-59665000D01*
X84910000Y-62075000D02*
X84910000Y-61745000D01*
%TO.C,R16*%
X78370000Y-62545000D02*
X78370000Y-62875000D01*
X78370000Y-65285000D02*
X78370000Y-64955000D01*
X84910000Y-62545000D02*
X78370000Y-62545000D01*
X84910000Y-62875000D02*
X84910000Y-62545000D01*
X84910000Y-64955000D02*
X84910000Y-65285000D01*
X84910000Y-65285000D02*
X78370000Y-65285000D01*
%TO.C,Q1*%
X67860000Y-111250000D02*
X71460000Y-111250000D01*
X67303600Y-108301193D02*
G75*
G02*
X69660000Y-106800000I2356400J-1098807D01*
G01*
X67860000Y-111250000D02*
G75*
G02*
X67335816Y-110522795I1800000J1850000D01*
G01*
X69660000Y-106800000D02*
G75*
G02*
X72016400Y-108301193I0J-2600000D01*
G01*
X71984184Y-110522795D02*
G75*
G02*
X71460000Y-111250000I-2324184J1122795D01*
G01*
%TO.C,J1*%
X121280000Y-120230000D02*
X121280000Y-132990000D01*
X121280000Y-120230000D02*
X123940000Y-120230000D01*
X121280000Y-132990000D02*
X123940000Y-132990000D01*
X122610000Y-117630000D02*
X123940000Y-117630000D01*
X123940000Y-117630000D02*
X123940000Y-118960000D01*
X123940000Y-120230000D02*
X123940000Y-132990000D01*
%TO.C,R27*%
X92840000Y-51030000D02*
X92840000Y-57570000D01*
X92840000Y-57570000D02*
X93170000Y-57570000D01*
X93170000Y-51030000D02*
X92840000Y-51030000D01*
X95250000Y-51030000D02*
X95580000Y-51030000D01*
X95580000Y-51030000D02*
X95580000Y-57570000D01*
X95580000Y-57570000D02*
X95250000Y-57570000D01*
%TO.C,R49*%
X77145000Y-126815000D02*
X77145000Y-127145000D01*
X77145000Y-129555000D02*
X77145000Y-129225000D01*
X83685000Y-126815000D02*
X77145000Y-126815000D01*
X83685000Y-127145000D02*
X83685000Y-126815000D01*
X83685000Y-129225000D02*
X83685000Y-129555000D01*
X83685000Y-129555000D02*
X77145000Y-129555000D01*
%TO.C,C3*%
X97180000Y-105750000D02*
X97180000Y-103010000D01*
X102420000Y-103010000D02*
X97180000Y-103010000D01*
X102420000Y-105750000D02*
X97180000Y-105750000D01*
X102420000Y-105750000D02*
X102420000Y-103010000D01*
%TO.C,RV38*%
X76765000Y-54865000D02*
X76765000Y-49815000D01*
X86515000Y-49815000D02*
X76765000Y-49815000D01*
X86515000Y-54865000D02*
X76765000Y-54865000D01*
X86515000Y-54865000D02*
X86515000Y-49815000D01*
%TO.C,J2*%
X58550000Y-89020000D02*
X58550000Y-94160000D01*
X58550000Y-89020000D02*
X61210000Y-89020000D01*
X58550000Y-94160000D02*
X61210000Y-94160000D01*
X59880000Y-86420000D02*
X61210000Y-86420000D01*
X61210000Y-86420000D02*
X61210000Y-87750000D01*
X61210000Y-89020000D02*
X61210000Y-94160000D01*
%TO.C,R26*%
X102045000Y-53195000D02*
X102045000Y-53525000D01*
X102045000Y-55935000D02*
X102045000Y-55605000D01*
X108585000Y-53195000D02*
X102045000Y-53195000D01*
X108585000Y-53525000D02*
X108585000Y-53195000D01*
X108585000Y-55605000D02*
X108585000Y-55935000D01*
X108585000Y-55935000D02*
X102045000Y-55935000D01*
%TO.C,J12*%
X112530000Y-87635000D02*
X112530000Y-88635000D01*
X112530000Y-88635000D02*
X113530000Y-88135000D01*
X113530000Y-88135000D02*
X112530000Y-87635000D01*
X113920000Y-82925000D02*
X123040000Y-82925000D01*
X113920000Y-91165000D02*
X115230000Y-91165000D01*
X113920000Y-103505000D02*
X113920000Y-82925000D01*
X115230000Y-84225000D02*
X121730000Y-84225000D01*
X115230000Y-91165000D02*
X115230000Y-84225000D01*
X115230000Y-95265000D02*
X113920000Y-95265000D01*
X115230000Y-95265000D02*
X115230000Y-95265000D01*
X115230000Y-102205000D02*
X115230000Y-95265000D01*
X121730000Y-84225000D02*
X121730000Y-102205000D01*
X121730000Y-102205000D02*
X115230000Y-102205000D01*
X123040000Y-82925000D02*
X123040000Y-103505000D01*
X123040000Y-103505000D02*
X113920000Y-103505000D01*
%TO.C,R53*%
X105105000Y-115140000D02*
X105435000Y-115140000D01*
X105105000Y-121680000D02*
X105105000Y-115140000D01*
X105435000Y-121680000D02*
X105105000Y-121680000D01*
X107515000Y-121680000D02*
X107845000Y-121680000D01*
X107845000Y-115140000D02*
X107515000Y-115140000D01*
X107845000Y-121680000D02*
X107845000Y-115140000D01*
D12*
%TO.C,RV44*%
X184340000Y-126090000D02*
X193840000Y-126090000D01*
X184340000Y-129480000D02*
X184340000Y-126090000D01*
X184340000Y-137440000D02*
X184340000Y-132400000D01*
X185516000Y-137440000D02*
X184340000Y-137440000D01*
X193840000Y-126090000D02*
X193840000Y-129480000D01*
X193840000Y-132400000D02*
X193840000Y-137440000D01*
X193840000Y-137440000D02*
X192664000Y-137440000D01*
D13*
X186690000Y-139690000D02*
G75*
G02*
X186490000Y-139690000I-100000J0D01*
G01*
X186490000Y-139690000D02*
G75*
G02*
X186690000Y-139690000I100000J0D01*
G01*
D11*
%TO.C,J14*%
X196345000Y-89240000D02*
X196345000Y-94380000D01*
X196345000Y-89240000D02*
X199005000Y-89240000D01*
X196345000Y-94380000D02*
X199005000Y-94380000D01*
X197675000Y-86640000D02*
X199005000Y-86640000D01*
X199005000Y-86640000D02*
X199005000Y-87970000D01*
X199005000Y-89240000D02*
X199005000Y-94380000D01*
%TO.C,R17*%
X107305000Y-71955000D02*
X107305000Y-78495000D01*
X107305000Y-78495000D02*
X107635000Y-78495000D01*
X107635000Y-71955000D02*
X107305000Y-71955000D01*
X109715000Y-71955000D02*
X110045000Y-71955000D01*
X110045000Y-71955000D02*
X110045000Y-78495000D01*
X110045000Y-78495000D02*
X109715000Y-78495000D01*
%TD*%
M02*
