M48
; DRILL file {KiCad 9.0.0} date 2025-05-08T15:18:40+0200
; FORMAT={-:-/ absolute / inch / decimal}
; #@! TF.CreationDate,2025-05-08T15:18:40+02:00
; #@! TF.GenerationSoftware,Kicad,Pcbnew,9.0.0
; #@! TF.FileFunction,Plated,1,2,PTH
FMAT,2
INCH
; #@! TA.AperFunction,Plated,PTH,ViaDrill
T1C0.0157
; #@! TA.AperFunction,Plated,PTH,ComponentDrill
T2C0.0236
; #@! TA.AperFunction,Plated,PTH,ComponentDrill
T3C0.0315
; #@! TA.AperFunction,Plated,PTH,ComponentDrill
T4C0.0394
; #@! TA.AperFunction,Plated,PTH,ComponentDrill
T5C0.0512
%
G90
G05
T1
X2.2874Y-3.5547
X2.4425Y-3.5543
X2.6709Y-3.5063
X3.1661Y-2.5287
X3.2185Y-2.7441
X3.3224Y-3.5949
X3.3713Y-4.398
X3.4047Y-3.8087
X3.5232Y-3.8087
X3.5346Y-3.0492
X3.6209Y-3.8484
X3.6378Y-3.35
X3.6421Y-3.5276
X3.6461Y-2.4661
X3.7815Y-2.4303
X3.8752Y-2.4591
X4.3929Y-5.039
X4.4886Y-4.9346
X4.6693Y-2.9429
X4.6724Y-5.222
X4.702Y-5.0205
X7.4988Y-5.2563
X7.7709Y-4.7378
T3
X2.4774Y-4.2392
X2.4774Y-4.3376
X2.478Y-4.4626
X2.478Y-4.5797
X2.6028Y-2.2098
X2.6425Y-4.3071
X2.7425Y-4.3071
X2.7732Y-3.661
X2.778Y-4.4626
X2.778Y-4.5797
X2.8402Y-4.9449
X2.8402Y-5.0449
X2.8402Y-5.1449
X2.8425Y-4.3071
X2.9028Y-2.2098
X3.0124Y-4.9148
X3.0148Y-4.7778
X3.0159Y-5.0467
X3.0159Y-5.1852
X3.0171Y-2.9569
X3.0171Y-3.0813
X3.0171Y-3.2289
X3.0171Y-3.4778
X3.038Y-4.1053
X3.0642Y-2.2656
X3.0642Y-2.39
X3.0642Y-2.5163
X3.0642Y-2.6431
X3.0732Y-3.661
X3.1142Y-1.8396
X3.1142Y-2.0608
X3.1754Y-4.2675
X3.1754Y-4.5675
X3.1994Y-3.6435
X3.1994Y-3.9435
X3.2142Y-1.8396
X3.2142Y-2.0608
X3.3033Y-4.2687
X3.3033Y-4.5687
X3.3124Y-4.9148
X3.3142Y-1.8396
X3.3142Y-2.0608
X3.3148Y-4.7778
X3.3159Y-5.0467
X3.3159Y-5.1852
X3.3169Y-5.3264
X3.3171Y-2.9569
X3.3171Y-3.0813
X3.3171Y-3.2289
X3.3171Y-3.4778
X3.338Y-4.1053
X3.3642Y-2.2656
X3.3642Y-2.39
X3.3642Y-2.5163
X3.3642Y-2.6431
X3.4606Y-2.8177
X3.4628Y-2.9791
X3.4628Y-3.0791
X3.4628Y-3.1791
X3.4628Y-3.2791
X3.4628Y-3.3791
X3.4628Y-3.4791
X3.4628Y-3.5791
X3.4628Y-4.4118
X3.4628Y-4.5118
X3.4628Y-4.6118
X3.4628Y-4.7118
X3.4628Y-4.8118
X3.4628Y-4.9118
X3.4628Y-5.0118
X3.463Y-3.8087
X3.463Y-3.9087
X3.463Y-4.0087
X3.463Y-4.1087
X3.4673Y-4.2705
X3.6169Y-5.3264
X3.7091Y-1.9878
X3.7091Y-2.2878
X3.7606Y-2.8177
X3.7628Y-2.9791
X3.7628Y-3.0791
X3.7628Y-3.1791
X3.7628Y-3.2791
X3.7628Y-3.3791
X3.7628Y-3.4791
X3.7628Y-3.5791
X3.7628Y-4.4118
X3.7628Y-4.5118
X3.7628Y-4.6118
X3.7628Y-4.7118
X3.7628Y-4.8118
X3.7628Y-4.9118
X3.7628Y-5.0118
X3.763Y-3.8087
X3.763Y-3.9087
X3.763Y-4.0087
X3.763Y-4.1087
X3.7673Y-4.2705
X3.878Y-3.8079
X3.8799Y-4.1094
X3.8921Y-3.3787
X3.9177Y-4.9193
X3.9354Y-4.5118
X3.9354Y-4.8118
X3.9764Y-3.8079
X3.9783Y-4.1094
X3.9906Y-3.3787
X3.9953Y-1.8898
X3.9953Y-2.0199
X3.9953Y-3.2201
X3.9963Y-2.1482
X3.9963Y-2.2754
X3.9963Y-2.4026
X3.9963Y-2.5313
X3.9963Y-2.6675
X4.0112Y-2.8136
X4.0112Y-3.1136
X4.0637Y-4.5118
X4.0637Y-4.8118
X4.1449Y-2.8126
X4.1449Y-3.1126
X4.1919Y-4.5118
X4.1919Y-4.8118
X4.2177Y-4.9193
X4.2785Y-2.8116
X4.2785Y-3.1116
X4.2953Y-1.8898
X4.2953Y-2.0199
X4.2953Y-3.2201
X4.2963Y-2.1482
X4.2963Y-2.2754
X4.2963Y-2.4026
X4.2963Y-2.5313
X4.2963Y-2.6675
X4.3207Y-4.512
X4.3207Y-4.812
X4.4041Y-2.6675
X4.4455Y-4.5118
X4.4455Y-4.8118
X4.7041Y-2.6675
X5.8465Y-2.4551
X6.1465Y-2.4551
X6.2319Y-2.5961
X6.2319Y-2.8961
X6.2626Y-2.4551
X6.3591Y-4.7953
X6.4575Y-4.7953
X6.5626Y-2.4551
X6.5657Y-4.0283
X6.8657Y-4.0283
T4
X2.3569Y-3.847
X2.3569Y-3.947
X2.3569Y-4.047
X2.3575Y-3.4547
X2.3575Y-3.5547
X2.3575Y-3.6547
X2.8892Y-2.44
X2.8892Y-2.5384
X2.8892Y-2.6368
X2.8892Y-2.9805
X2.8892Y-3.0789
X2.8892Y-3.1774
X3.3343Y-1.5835
X3.4343Y-1.5835
X3.5343Y-1.5835
X3.6343Y-1.5835
X3.7343Y-1.5835
X3.8343Y-1.5835
X4.6146Y-3.4699
X4.6146Y-3.5699
X4.6146Y-3.6699
X4.6146Y-3.7699
X4.6146Y-3.8699
X4.7146Y-3.4699
X4.7146Y-3.5699
X4.7146Y-3.6699
X4.7146Y-3.7699
X4.7146Y-3.8699
X4.8272Y-4.6835
X4.8272Y-4.7835
X4.8272Y-4.8835
X4.8272Y-4.9835
X4.8272Y-5.0835
X4.8272Y-5.1835
X5.3087Y-4.685
X5.3087Y-4.785
X5.3087Y-4.885
X5.3087Y-4.985
X5.3087Y-5.085
X5.3087Y-5.185
X6.3051Y-1.5835
X6.4051Y-1.5835
X6.4573Y-5.4544
X6.4617Y-2.3095
X6.4617Y-3.0958
X6.4617Y-3.882
X6.4617Y-4.6682
X6.5051Y-1.5835
X6.5557Y-5.4544
X6.5601Y-2.3095
X6.5601Y-3.0958
X6.5601Y-3.882
X6.5601Y-4.6682
X6.6051Y-1.5835
X6.6541Y-5.4544
X6.6585Y-2.3095
X6.6585Y-3.0958
X6.6585Y-3.882
X6.6585Y-4.6682
X6.7051Y-1.5835
X6.8051Y-1.5835
X7.3461Y-5.4504
X7.4445Y-5.4504
X7.5429Y-5.4504
X7.7825Y-3.4634
X7.7825Y-3.5634
X7.7825Y-3.6634
X7.7825Y-3.8429
X7.7825Y-3.9429
X7.7825Y-4.0429
T2
G00X5.6172Y-2.2244
M15
G01X5.692Y-2.2244
M16
G05
G00X5.6172Y-3.0106
M15
G01X5.692Y-3.0106
M16
G05
G00X5.6172Y-3.7969
M15
G01X5.692Y-3.7969
M16
G05
G00X5.6172Y-4.5831
M15
G01X5.692Y-4.5831
M16
G05
G00X5.6172Y-5.3693
M15
G01X5.692Y-5.3693
M16
G05
G00X5.7924Y-1.9941
M15
G01X5.7924Y-2.0689
M16
G05
G00X5.7924Y-2.7803
M15
G01X5.7924Y-2.8551
M16
G05
G00X5.7924Y-3.5665
M15
G01X5.7924Y-3.6413
M16
G05
G00X5.7924Y-4.3528
M15
G01X5.7924Y-4.4276
M16
G05
G00X5.7924Y-5.139
M15
G01X5.7924Y-5.2138
M16
G05
G00X7.4035Y-2.2244
M15
G01X7.4783Y-2.2244
M16
G05
G00X7.4035Y-2.9953
M15
G01X7.4783Y-2.9953
M16
G05
G00X7.4035Y-3.7488
M15
G01X7.4783Y-3.7488
M16
G05
G00X7.4035Y-4.51
M15
G01X7.4783Y-4.51
M16
G05
G00X7.5787Y-1.9941
M15
G01X7.5787Y-2.0689
M16
G05
G00X7.5787Y-2.765
M15
G01X7.5787Y-2.8398
M16
G05
G00X7.5787Y-3.5185
M15
G01X7.5787Y-3.5933
M16
G05
G00X7.5787Y-4.2797
M15
G01X7.5787Y-4.3545
M16
G05
T4
G00X5.5168Y-2.1004
M15
G01X5.5168Y-2.1594
M16
G05
G00X5.5168Y-2.8866
M15
G01X5.5168Y-2.9457
M16
G05
G00X5.5168Y-3.6728
M15
G01X5.5168Y-3.7319
M16
G05
G00X5.5168Y-4.4591
M15
G01X5.5168Y-4.5181
M16
G05
G00X5.5168Y-5.2453
M15
G01X5.5168Y-5.3043
M16
G05
G00X7.3031Y-2.1004
M15
G01X7.3031Y-2.1594
M16
G05
G00X7.3031Y-2.8713
M15
G01X7.3031Y-2.9303
M16
G05
G00X7.3031Y-3.6248
M15
G01X7.3031Y-3.6839
M16
G05
G00X7.3031Y-4.386
M15
G01X7.3031Y-4.4451
M16
G05
T5
G00X2.5939Y-2.3415
M15
G01X2.5939Y-2.3376
M16
G05
G00X2.5939Y-2.7392
M15
G01X2.5939Y-2.7352
M16
G05
G00X2.5939Y-2.8821
M15
G01X2.5939Y-2.8781
M16
G05
G00X2.5939Y-3.2797
M15
G01X2.5939Y-3.2758
M16
G05
G00X6.3549Y-5.1592
M15
G01X6.3589Y-5.1592
M16
G05
G00X6.3593Y-2.0143
M15
G01X6.3632Y-2.0143
M16
G05
G00X6.3593Y-2.8005
M15
G01X6.3632Y-2.8005
M16
G05
G00X6.3593Y-3.5867
M15
G01X6.3632Y-3.5867
M16
G05
G00X6.3593Y-4.3729
M15
G01X6.3632Y-4.3729
M16
G05
G00X6.7526Y-5.1592
M15
G01X6.7565Y-5.1592
M16
G05
G00X6.7569Y-2.0143
M15
G01X6.7609Y-2.0143
M16
G05
G00X6.7569Y-2.8005
M15
G01X6.7609Y-2.8005
M16
G05
G00X6.7569Y-3.5867
M15
G01X6.7609Y-3.5867
M16
G05
G00X6.7569Y-4.3729
M15
G01X6.7609Y-4.3729
M16
G05
G00X7.2437Y-5.1551
M15
G01X7.2476Y-5.1551
M16
G05
G00X7.6413Y-5.1551
M15
G01X7.6453Y-5.1551
M16
G05
M30
